<?xml version="1.0" encoding="UTF-8"?>
<svg xmlns="http://www.w3.org/2000/svg" width="30.492" height="100.324224" viewBox="0 0 30.492 100.324224">

<path fill-rule="nonzero" fill="currentColor" d="M 20.5 80.367188 L 26.71875 69.683594 L 20.5 73.277344 L 20.5 51.023438 C 20.5 50.273438 20.945312 49.285156 21.488281 48.960938 C 22.136719 48.738281 23.992188 48.089844 23.992188 48.089844 C 24.539062 47.75 24.980469 47.101562 24.980469 46.558594 L 24.980469 40.335938 C 24.980469 39.910156 24.761719 39.691406 24.4375 39.691406 C 24.214844 39.691406 24.097656 39.691406 23.992188 39.792969 L 21.710938 40.660156 C 21.164062 40.660156 20.5 40.117188 20.5 39.027344 L 20.5 30.964844 C 20.5 30.300781 20.945312 28.664062 21.710938 28.460938 L 23.992188 27.574219 C 24.539062 27.25 24.980469 26.601562 24.980469 26.058594 L 24.980469 19.835938 C 24.980469 19.394531 24.761719 19.191406 24.4375 19.191406 C 24.214844 19.191406 24.097656 19.191406 23.992188 19.292969 C 23.992188 19.292969 22.253906 19.941406 21.8125 20.058594 C 21.164062 20.058594 20.5 19.617188 20.5 18.847656 L 20.5 8.285156 C 20.5 7.738281 20.074219 7.296875 19.308594 7.296875 C 18.4375 7.296875 17.894531 7.738281 17.894531 8.285156 L 17.894531 19.617188 C 17.894531 20.484375 17.550781 21.574219 16.800781 22.121094 C 15.710938 22.785156 12.765625 23.976562 11.347656 24.300781 C 10.464844 24.300781 10.257812 23.210938 10.257812 22.5625 L 10.257812 12.101562 C 10.257812 11.554688 9.59375 11.113281 9.046875 11.113281 C 8.179688 11.113281 7.632812 11.554688 7.632812 12.101562 L 7.632812 23.875 C 7.632812 25.070312 7.089844 25.9375 6.542969 26.277344 C 6.101562 26.484375 4.363281 27.148438 4.363281 27.148438 C 3.714844 27.371094 3.273438 28.015625 3.273438 28.5625 L 3.273438 34.78125 C 3.273438 35.328125 3.492188 35.550781 4.039062 35.550781 L 4.261719 35.550781 C 4.363281 35.429688 5.675781 35.003906 6.21875 34.5625 C 7.089844 34.5625 7.632812 35.207031 7.632812 36.09375 L 7.632812 44.699219 C 7.632812 45.6875 7.191406 46.457031 6.644531 46.78125 C 6.101562 46.882812 4.363281 47.648438 4.363281 47.648438 C 3.714844 47.871094 3.273438 48.519531 3.273438 49.0625 L 3.273438 55.28125 C 3.273438 55.828125 3.492188 56.050781 4.039062 56.050781 L 4.261719 56.050781 C 4.363281 55.929688 5.554688 55.503906 6.320312 55.179688 C 6.441406 55.0625 6.542969 55.0625 6.542969 55.0625 C 7.191406 55.0625 7.632812 56.050781 7.632812 56.476562 L 7.632812 67.28125 C 7.632812 67.722656 8.179688 68.148438 8.726562 68.148438 C 9.59375 68.148438 10.257812 67.722656 10.257812 67.28125 L 10.257812 55.0625 C 10.257812 53.972656 10.683594 53.324219 11.128906 53.203125 L 16.460938 51.023438 C 16.460938 51.023438 16.460938 51.023438 16.582031 51.023438 L 16.683594 50.921875 C 17.449219 50.921875 17.894531 52.011719 17.894531 52.453125 L 17.894531 73.277344 L 11.777344 69.683594 L 17.894531 80.367188 L 17.894531 82.871094 L 11.777344 79.378906 L 19.1875 92.363281 L 26.71875 79.378906 L 20.5 82.871094 Z M 11.347656 45.246094 C 10.804688 45.246094 10.359375 45.023438 10.257812 44.820312 C 10.039062 44.480469 10.039062 42.519531 10.039062 40.457031 C 10.039062 37.730469 10.039062 34.664062 10.257812 34.015625 C 10.464844 32.480469 14.398438 30.640625 16.582031 30.640625 C 17.230469 30.640625 17.773438 30.847656 17.894531 31.1875 C 18.097656 31.613281 18.320312 33.792969 18.320312 36.195312 C 18.320312 38.480469 18.097656 41.003906 17.894531 41.753906 C 17.449219 43.507812 13.308594 45.246094 11.347656 45.246094 Z M 11.347656 45.246094 "/>
</svg>
