<?xml version="1.0" encoding="UTF-8"?>
<svg xmlns="http://www.w3.org/2000/svg" width="53.136468" height="65.335347" viewBox="0 0 53.136468 65.335347">

<path fill-rule="nonzero" fill="currentColor" d="M 31.546875 7.476562 C 31.546875 6.488281 31.222656 5.941406 30.335938 5.941406 C 29.042969 5.941406 28.921875 6.386719 28.921875 7.578125 L 28.921875 32.894531 C 27.507812 31.683594 25.769531 31.035156 23.789062 31.035156 C 22.921875 31.035156 22.050781 31.140625 21.183594 31.480469 C 20.3125 31.683594 17.6875 33.660156 16.050781 33.660156 C 15.402344 33.660156 14.859375 33.21875 14.859375 32.128906 L 14.859375 7.476562 C 14.859375 7.355469 14.859375 7.253906 22.921875 7.253906 C 23.144531 7.253906 23.363281 7.03125 23.363281 6.8125 L 23.363281 5.074219 C 23.363281 4.851562 23.144531 4.628906 22.921875 4.628906 L 4.152344 4.628906 C 3.828125 4.628906 3.605469 4.851562 3.605469 5.074219 L 3.605469 6.8125 C 3.605469 7.03125 3.828125 7.253906 4.152344 7.253906 L 12.230469 7.253906 L 12.230469 59.625 C 12.230469 59.847656 12.453125 60.050781 12.675781 60.050781 C 14.089844 60.050781 18.234375 56.574219 19.101562 55.808594 C 21.0625 53.949219 23.6875 52.636719 25.648438 50.777344 C 26.859375 49.585938 27.949219 48.492188 28.921875 47.179688 L 28.921875 59.625 C 28.921875 59.847656 29.042969 60.050781 29.367188 60.050781 C 30.78125 60.050781 34.921875 56.574219 35.792969 55.808594 C 37.769531 53.949219 40.277344 52.535156 42.238281 50.675781 C 45.511719 47.847656 48.679688 43.90625 48.679688 39.320312 C 48.679688 34.753906 44.863281 31.035156 40.496094 31.035156 C 39.609375 31.035156 38.640625 31.140625 37.769531 31.480469 C 36.882812 31.683594 34.273438 33.660156 32.742188 33.660156 C 32.09375 33.660156 31.546875 33.21875 31.546875 32.128906 Z M 31.546875 42.167969 C 31.648438 41.84375 31.648438 41.726562 31.648438 41.503906 C 32.09375 40.53125 32.636719 39.765625 32.859375 39.441406 C 32.859375 37.90625 37.429688 35.621094 39.066406 35.621094 C 39.953125 35.621094 40.703125 35.945312 41.246094 36.492188 C 42.132812 37.480469 42.5625 38.996094 42.5625 40.632812 C 42.5625 46.3125 37.769531 50.027344 33.40625 52.753906 C 33.066406 52.960938 32.519531 53.078125 32.316406 53.078125 C 31.546875 53.078125 31.546875 51.765625 31.546875 51.324219 Z M 14.859375 42.59375 C 14.859375 41.503906 15.949219 39.765625 16.152344 39.320312 C 16.921875 37.804688 20.414062 35.621094 22.375 35.621094 C 23.246094 35.621094 24.011719 35.945312 24.558594 36.492188 C 25.425781 37.480469 25.972656 38.996094 25.972656 40.632812 C 25.972656 46.210938 21.0625 50.027344 16.816406 52.753906 C 16.375 52.960938 15.949219 53.078125 15.609375 53.078125 C 14.859375 53.078125 14.859375 51.765625 14.859375 51.324219 Z M 14.859375 42.59375 "/>
</svg>
