<?xml version="1.0" encoding="UTF-8"?>
<svg xmlns="http://www.w3.org/2000/svg" width="30.38805" height="88.868934" viewBox="0 0 30.38805 88.868934">

<path fill-rule="nonzero" fill="currentColor" d="M 20.429688 72.578125 L 20.429688 50.398438 C 20.429688 49.652344 20.871094 48.667969 21.414062 48.34375 C 22.0625 48.125 23.910156 47.476562 23.910156 47.476562 C 24.457031 47.136719 24.898438 46.492188 24.898438 45.949219 L 24.898438 39.75 C 24.898438 39.328125 24.675781 39.105469 24.355469 39.105469 C 24.132812 39.105469 24.015625 39.105469 23.910156 39.207031 L 21.636719 40.074219 C 21.09375 40.074219 20.429688 39.53125 20.429688 38.441406 L 20.429688 30.410156 C 20.429688 29.746094 20.871094 28.117188 21.636719 27.914062 L 23.910156 27.03125 C 24.457031 26.707031 24.898438 26.0625 24.898438 25.519531 L 24.898438 19.320312 C 24.898438 18.878906 24.675781 18.675781 24.355469 18.675781 C 24.132812 18.675781 24.015625 18.675781 23.910156 18.777344 C 23.910156 18.777344 22.179688 19.421875 21.738281 19.542969 C 21.09375 19.542969 20.429688 19.097656 20.429688 18.335938 L 20.429688 7.804688 C 20.429688 7.261719 20.007812 6.820312 19.242188 6.820312 C 18.375 6.820312 17.832031 7.261719 17.832031 7.804688 L 17.832031 19.097656 C 17.832031 19.964844 17.492188 21.050781 16.746094 21.597656 C 15.660156 22.257812 12.71875 23.445312 11.3125 23.769531 C 10.425781 23.769531 10.222656 22.683594 10.222656 22.039062 L 10.222656 11.609375 C 10.222656 11.066406 9.5625 10.625 9.019531 10.625 C 8.152344 10.625 7.609375 11.066406 7.609375 11.609375 L 7.609375 23.34375 C 7.609375 24.535156 7.066406 25.398438 6.519531 25.738281 C 6.078125 25.945312 4.347656 26.605469 4.347656 26.605469 C 3.703125 26.828125 3.261719 27.472656 3.261719 28.015625 L 3.261719 34.214844 C 3.261719 34.757812 3.480469 34.980469 4.023438 34.980469 L 4.246094 34.980469 C 4.347656 34.859375 5.65625 34.433594 6.199219 33.992188 C 7.066406 33.992188 7.609375 34.640625 7.609375 35.523438 L 7.609375 44.097656 C 7.609375 45.082031 7.167969 45.847656 6.625 46.171875 C 6.078125 46.273438 4.347656 47.035156 4.347656 47.035156 C 3.703125 47.257812 3.261719 47.902344 3.261719 48.445312 L 3.261719 54.644531 C 3.261719 55.1875 3.480469 55.410156 4.023438 55.410156 L 4.246094 55.410156 C 4.347656 55.289062 5.535156 54.867188 6.300781 54.542969 C 6.417969 54.425781 6.519531 54.425781 6.519531 54.425781 C 7.167969 54.425781 7.609375 55.410156 7.609375 55.832031 L 7.609375 66.601562 C 7.609375 67.042969 8.152344 67.46875 8.695312 67.46875 C 9.5625 67.46875 10.222656 67.042969 10.222656 66.601562 L 10.222656 54.425781 C 10.222656 53.335938 10.648438 52.691406 11.089844 52.574219 L 16.40625 50.398438 C 16.40625 50.398438 16.40625 50.398438 16.523438 50.398438 L 16.625 50.296875 C 17.390625 50.296875 17.832031 51.382812 17.832031 51.824219 L 17.832031 72.578125 L 11.734375 69.097656 L 19.121094 81.917969 L 26.527344 69.097656 Z M 11.3125 44.640625 C 10.765625 44.640625 10.324219 44.421875 10.222656 44.21875 C 10.003906 43.878906 10.003906 41.925781 10.003906 39.871094 C 10.003906 37.152344 10.003906 34.09375 10.222656 33.449219 C 10.425781 31.921875 14.351562 30.085938 16.523438 30.085938 C 17.167969 30.085938 17.714844 30.292969 17.832031 30.632812 C 18.035156 31.054688 18.257812 33.230469 18.257812 35.625 C 18.257812 37.898438 18.035156 40.414062 17.832031 41.160156 C 17.390625 42.910156 13.265625 44.640625 11.3125 44.640625 Z M 11.3125 44.640625 "/>
</svg>
