<?xml version="1.0" encoding="UTF-8"?>
<svg xmlns="http://www.w3.org/2000/svg" width="30.492" height="111.779514" viewBox="0 0 30.492 111.779514">

<path fill-rule="nonzero" fill="currentColor" d="M 26.71875 80.59375 L 20.5 84.085938 L 20.5 81.566406 L 26.71875 70.878906 L 20.5 74.375 L 20.5 52.117188 C 20.5 51.367188 20.945312 50.378906 21.488281 50.054688 C 22.136719 49.832031 23.992188 49.1875 23.992188 49.1875 C 24.539062 48.84375 24.980469 48.199219 24.980469 47.652344 L 24.980469 41.433594 C 24.980469 41.007812 24.761719 40.785156 24.4375 40.785156 C 24.214844 40.785156 24.097656 40.785156 23.992188 40.886719 L 21.710938 41.757812 C 21.164062 41.757812 20.5 41.210938 20.5 40.121094 L 20.5 32.058594 C 20.5 31.394531 20.945312 29.757812 21.710938 29.554688 L 23.992188 28.667969 C 24.539062 28.34375 24.980469 27.699219 24.980469 27.152344 L 24.980469 20.933594 C 24.980469 20.488281 24.761719 20.285156 24.4375 20.285156 C 24.214844 20.285156 24.097656 20.285156 23.992188 20.386719 C 23.992188 20.386719 22.253906 21.035156 21.8125 21.152344 C 21.164062 21.152344 20.5 20.710938 20.5 19.945312 L 20.5 9.378906 C 20.5 8.832031 20.074219 8.390625 19.308594 8.390625 C 18.4375 8.390625 17.894531 8.832031 17.894531 9.378906 L 17.894531 20.710938 C 17.894531 21.578125 17.550781 22.671875 16.800781 23.214844 C 15.710938 23.878906 12.765625 25.074219 11.347656 25.398438 C 10.464844 25.398438 10.257812 24.304688 10.257812 23.660156 L 10.257812 13.195312 C 10.257812 12.648438 9.59375 12.207031 9.046875 12.207031 C 8.179688 12.207031 7.632812 12.648438 7.632812 13.195312 L 7.632812 24.972656 C 7.632812 26.164062 7.089844 27.03125 6.542969 27.375 C 6.101562 27.578125 4.363281 28.242188 4.363281 28.242188 C 3.714844 28.464844 3.273438 29.113281 3.273438 29.65625 L 3.273438 35.878906 C 3.273438 36.421875 3.492188 36.644531 4.039062 36.644531 L 4.261719 36.644531 C 4.363281 36.523438 5.675781 36.097656 6.21875 35.65625 C 7.089844 35.65625 7.632812 36.304688 7.632812 37.191406 L 7.632812 45.796875 C 7.632812 46.785156 7.191406 47.550781 6.644531 47.875 C 6.101562 47.976562 4.363281 48.742188 4.363281 48.742188 C 3.714844 48.964844 3.273438 49.613281 3.273438 50.15625 L 3.273438 56.378906 C 3.273438 56.921875 3.492188 57.144531 4.039062 57.144531 L 4.261719 57.144531 C 4.363281 57.023438 5.554688 56.597656 6.320312 56.277344 C 6.441406 56.15625 6.542969 56.15625 6.542969 56.15625 C 7.191406 56.15625 7.632812 57.144531 7.632812 57.570312 L 7.632812 68.375 C 7.632812 68.816406 8.179688 69.242188 8.726562 69.242188 C 9.59375 69.242188 10.257812 68.816406 10.257812 68.375 L 10.257812 56.15625 C 10.257812 55.066406 10.683594 54.417969 11.128906 54.296875 L 16.460938 52.117188 C 16.460938 52.117188 16.460938 52.117188 16.582031 52.117188 L 16.683594 52.015625 C 17.449219 52.015625 17.894531 53.105469 17.894531 53.550781 L 17.894531 74.375 L 11.777344 70.878906 L 17.894531 81.566406 L 17.894531 84.085938 L 11.777344 80.59375 L 17.894531 91.175781 L 17.894531 93.679688 L 11.777344 90.1875 L 19.1875 103.171875 L 26.71875 90.1875 L 20.5 93.679688 L 20.5 91.175781 Z M 11.347656 46.339844 C 10.804688 46.339844 10.359375 46.117188 10.257812 45.914062 C 10.039062 45.574219 10.039062 43.613281 10.039062 41.550781 C 10.039062 38.824219 10.039062 35.757812 10.257812 35.109375 C 10.464844 33.578125 14.398438 31.738281 16.582031 31.738281 C 17.230469 31.738281 17.773438 31.941406 17.894531 32.28125 C 18.097656 32.707031 18.320312 34.890625 18.320312 37.292969 C 18.320312 39.574219 18.097656 42.097656 17.894531 42.847656 C 17.449219 44.601562 13.308594 46.339844 11.347656 46.339844 Z M 11.347656 46.339844 "/>
</svg>
