<?xml version="1.0" encoding="UTF-8"?>
<svg xmlns="http://www.w3.org/2000/svg" width="33.038775" height="73.816281" viewBox="0 0 33.038775 73.816281">

<path fill-rule="nonzero" fill="currentColor" d="M 11.96875 15.160156 L 17.996094 18.710938 L 10.671875 5.902344 L 3.230469 18.710938 L 9.378906 15.160156 L 9.378906 67.316406 C 9.378906 67.535156 9.597656 67.738281 9.816406 67.738281 C 11.210938 67.738281 15.304688 64.300781 16.160156 63.542969 C 18.097656 61.710938 20.589844 60.3125 22.527344 58.476562 C 25.757812 55.683594 28.871094 51.792969 28.871094 47.265625 C 28.871094 42.753906 25.101562 39.082031 20.792969 39.082031 C 19.933594 39.082031 19.074219 39.183594 18.214844 39.519531 C 17.355469 39.722656 14.765625 41.675781 13.148438 41.675781 C 12.507812 41.675781 11.96875 41.238281 11.96875 40.160156 Z M 11.96875 50.496094 C 11.96875 49.421875 13.046875 47.703125 13.25 47.265625 C 14.007812 45.765625 17.457031 43.613281 19.394531 43.613281 C 20.253906 43.613281 21.011719 43.933594 21.550781 44.46875 C 22.40625 45.445312 22.945312 46.945312 22.945312 48.5625 C 22.945312 54.066406 18.097656 57.835938 13.90625 60.53125 C 13.46875 60.734375 13.046875 60.851562 12.710938 60.851562 C 11.96875 60.851562 11.96875 59.554688 11.96875 59.117188 Z M 11.96875 50.496094 "/>
</svg>
