<?xml version="1.0" encoding="UTF-8"?>
<svg xmlns="http://www.w3.org/2000/svg" width="28.603575" height="69.716493" viewBox="0 0 28.603575 69.716493">

<path fill-rule="nonzero" fill="currentColor" d="M 21.53125 27.824219 L 15.414062 17.109375 L 15.414062 14.699219 L 21.53125 18.203125 L 14.097656 5.078125 L 6.664062 18.203125 L 12.78125 14.699219 L 12.78125 17.109375 L 6.664062 27.824219 L 12.78125 24.335938 L 12.78125 26.730469 L 6.664062 37.460938 L 12.78125 33.957031 L 12.78125 44.023438 L 15.414062 44.023438 L 15.414062 33.957031 L 21.53125 37.460938 L 15.414062 26.730469 L 15.414062 24.335938 Z M 19.890625 56.257812 C 18.917969 55.710938 15.859375 53.96875 15.859375 53.320312 C 15.859375 52.105469 18.695312 50.789062 19.890625 50.363281 C 20.230469 50.363281 20.660156 50.464844 20.984375 50.464844 C 24.265625 50.464844 24.929688 49.59375 24.929688 46.414062 C 24.929688 43.03125 24.605469 42.261719 21.105469 42.261719 C 19.464844 42.261719 17.925781 42.484375 17.5 42.929688 C 17.15625 43.132812 17.054688 44.773438 17.054688 46.3125 C 16.609375 47.304688 15.191406 50.464844 14.097656 50.464844 C 12.902344 50.464844 11.484375 47.507812 11.140625 46.3125 C 11.140625 44.894531 10.9375 43.253906 10.492188 42.929688 C 10.167969 42.484375 8.75 42.261719 7.3125 42.261719 C 5.792969 42.261719 4.253906 42.484375 3.707031 42.929688 C 3.484375 43.132812 3.28125 44.570312 3.28125 46.210938 C 3.28125 47.730469 3.484375 49.269531 3.707031 49.59375 C 4.375 50.140625 5.894531 50.464844 7.433594 50.464844 C 7.757812 50.464844 7.980469 50.363281 8.304688 50.363281 C 9.296875 50.910156 12.355469 52.652344 12.355469 53.199219 C 12.355469 54.414062 9.621094 55.832031 8.40625 56.257812 L 7.535156 56.257812 C 5.894531 56.257812 4.253906 56.378906 3.707031 56.804688 C 3.484375 57.148438 3.28125 58.566406 3.28125 60.207031 C 3.28125 61.726562 3.484375 63.265625 3.707031 63.488281 C 4.375 64.03125 5.792969 64.359375 7.210938 64.359375 C 8.527344 64.359375 9.945312 64.136719 10.492188 63.488281 C 11.039062 63.042969 11.140625 61.519531 11.140625 60.207031 C 11.140625 60.085938 11.261719 59.878906 11.363281 59.761719 C 11.910156 58.566406 12.902344 56.15625 14.097656 56.15625 C 15.191406 56.15625 16.730469 58.890625 17.054688 60.207031 C 17.054688 61.726562 17.15625 63.265625 17.5 63.488281 C 18.046875 64.03125 19.464844 64.359375 20.984375 64.359375 C 22.417969 64.359375 23.71875 64.136719 24.265625 63.488281 C 24.710938 63.042969 24.929688 61.726562 24.929688 60.308594 C 24.929688 58.890625 24.605469 57.25 24.265625 56.804688 C 23.839844 56.378906 22.300781 56.257812 20.777344 56.257812 Z M 19.890625 56.257812 "/>
</svg>
