<?xml version="1.0" encoding="UTF-8"?>
<svg xmlns="http://www.w3.org/2000/svg" width="30.59595" height="68.952807" viewBox="0 0 30.59595 68.952807">

<path fill-rule="nonzero" fill="currentColor" d="M 26.367188 25.261719 C 26.265625 25.261719 26.042969 25.363281 25.820312 25.484375 L 16.414062 29.195312 L 16.414062 7.753906 L 24.519531 7.753906 C 24.726562 7.753906 24.949219 7.648438 24.949219 7.308594 L 24.949219 5.5625 C 24.949219 5.339844 24.726562 5.121094 24.519531 5.121094 L 5.695312 5.121094 C 5.371094 5.121094 5.25 5.339844 5.25 5.5625 L 5.25 7.308594 C 5.25 7.648438 5.371094 7.753906 5.695312 7.753906 L 13.78125 7.753906 L 13.78125 30.289062 L 4.378906 34.121094 C 3.386719 34.667969 3.28125 34.890625 3.28125 35.554688 L 3.28125 42.445312 C 3.28125 43.214844 3.503906 43.644531 3.832031 43.644531 C 3.933594 43.644531 4.15625 43.644531 4.378906 43.542969 L 13.78125 39.710938 L 13.78125 62.691406 C 13.78125 63.34375 14.226562 63.785156 14.875 63.785156 L 15.320312 63.785156 C 15.96875 63.785156 16.414062 63.34375 16.414062 62.691406 L 16.414062 38.71875 L 25.820312 34.890625 C 26.589844 34.5625 26.914062 34.460938 26.914062 33.792969 L 26.914062 26.578125 C 26.914062 25.707031 26.707031 25.261719 26.367188 25.261719 Z M 26.367188 25.261719 "/>
</svg>
