<?xml version="1.0" encoding="UTF-8"?>
<svg xmlns="http://www.w3.org/2000/svg" width="32.9175" height="92.606976" viewBox="0 0 32.9175 92.606976">

<path fill-rule="nonzero" fill="currentColor" d="M 12.171875 7.914062 C 12.171875 6.910156 11.828125 6.359375 10.949219 6.359375 C 9.742188 6.359375 9.515625 6.808594 9.515625 8.015625 L 9.515625 66.429688 L 3.339844 62.894531 L 9.515625 73.8125 L 9.515625 76.246094 L 3.339844 72.710938 L 10.84375 85.855469 L 18.453125 72.710938 L 12.171875 76.246094 L 12.171875 73.8125 L 18.453125 62.894531 L 12.171875 66.429688 L 12.171875 60.132812 C 14.035156 58.910156 16.367188 57.046875 16.695312 56.699219 C 18.796875 54.941406 21.109375 53.507812 22.992188 51.628906 C 26.304688 48.765625 29.496094 44.78125 29.496094 40.140625 C 29.496094 35.515625 25.628906 31.753906 21.214844 31.753906 C 20.332031 31.753906 19.453125 31.859375 18.574219 32.203125 C 17.695312 32.410156 15.039062 34.410156 13.382812 34.410156 C 12.726562 34.410156 12.171875 33.960938 12.171875 32.859375 Z M 12.171875 43.449219 C 12.171875 42.347656 13.277344 40.585938 13.484375 40.140625 C 14.261719 38.601562 17.796875 36.394531 19.78125 36.394531 C 20.660156 36.394531 21.4375 36.722656 21.988281 37.273438 C 22.871094 38.277344 23.421875 39.8125 23.421875 41.46875 C 23.421875 47.109375 18.453125 50.972656 14.15625 53.734375 C 13.710938 53.941406 13.277344 54.0625 12.933594 54.0625 C 12.171875 54.0625 12.171875 52.734375 12.171875 52.285156 Z M 12.171875 43.449219 "/>
</svg>
