<?xml version="1.0" encoding="UTF-8"?>
<svg xmlns="http://www.w3.org/2000/svg" width="27.82395" height="90.03456" viewBox="0 0 27.82395 90.03456">

<path fill-rule="nonzero" fill="currentColor" d="M 18.058594 70.867188 L 24.296875 60.121094 L 18.058594 63.636719 L 18.058594 20.300781 C 18.058594 19.855469 17.714844 19.652344 17.390625 19.652344 C 17.289062 19.652344 17.167969 19.652344 17.066406 19.753906 L 15.746094 20.199219 C 15.523438 20.199219 15.417969 20.199219 15.417969 20.199219 C 15.417969 20.199219 9.164062 22.273438 6.867188 22.273438 C 6.316406 22.273438 5.992188 22.171875 5.992188 21.84375 L 5.992188 7.136719 C 5.992188 6.589844 5.441406 6.144531 4.894531 6.144531 L 4.449219 6.144531 C 3.796875 6.144531 3.351562 6.589844 3.351562 7.136719 L 3.351562 52.339844 C 3.351562 52.886719 3.574219 53.109375 4.121094 53.109375 L 4.347656 53.109375 C 4.449219 53.109375 4.550781 53.109375 4.671875 52.992188 C 5.871094 52.441406 11.476562 50.367188 13.996094 50.367188 C 14.871094 50.367188 15.417969 50.574219 15.417969 51.34375 L 15.417969 63.636719 L 9.28125 60.121094 L 15.417969 70.867188 L 15.417969 73.285156 L 9.28125 69.773438 L 16.738281 82.9375 L 24.296875 69.773438 L 18.058594 73.285156 Z M 5.992188 32.59375 C 5.992188 31.375 12.574219 29.078125 14.648438 29.078125 C 15.195312 29.078125 15.417969 29.179688 15.417969 29.523438 L 15.417969 38.625 C 15.417969 40.152344 9.28125 42.140625 7.089844 42.140625 C 6.539062 42.140625 5.992188 42.019531 5.992188 41.695312 Z M 5.992188 32.59375 "/>
</svg>
