<?xml version="1.0" encoding="UTF-8"?>
<svg xmlns="http://www.w3.org/2000/svg" width="21.846825" height="71.384544" viewBox="0 0 21.846825 71.384544">

<path fill-rule="nonzero" fill="currentColor" d="M 5.960938 21.042969 L 5.960938 16.304688 L 17.28125 20.925781 C 18.054688 20.925781 18.378906 20.925781 18.378906 19.824219 L 18.378906 11.152344 C 18.378906 10.601562 17.933594 10.378906 17.28125 10.15625 L 4.089844 4.882812 C 3.539062 4.882812 3.316406 5.207031 3.316406 5.757812 L 3.316406 64.898438 C 3.316406 65.445312 3.761719 65.894531 4.3125 65.894531 L 4.964844 65.894531 C 5.515625 65.894531 5.960938 65.445312 5.960938 64.898438 L 5.960938 31.8125 L 17.28125 36.539062 C 18.054688 36.539062 18.378906 36.316406 18.378906 35.4375 L 18.378906 26.746094 C 18.378906 26.09375 17.933594 25.992188 17.28125 25.648438 Z M 5.960938 21.042969 "/>
</svg>
