<?xml version="1.0" encoding="UTF-8"?>
<svg xmlns="http://www.w3.org/2000/svg" width="21.846825" height="71.384544" viewBox="0 0 21.846825 71.384544">

<path fill-rule="nonzero" fill="currentColor" d="M 17.28125 45.109375 C 17.933594 44.78125 18.378906 44.664062 18.378906 44.011719 L 18.378906 35.320312 C 18.378906 34.441406 18.054688 34.21875 17.28125 34.21875 L 5.960938 38.960938 L 5.960938 5.859375 C 5.960938 5.308594 5.515625 4.882812 4.964844 4.882812 L 4.3125 4.882812 C 3.761719 4.882812 3.316406 5.308594 3.316406 5.859375 L 3.316406 65 C 3.316406 65.550781 3.539062 65.894531 4.089844 65.894531 L 17.28125 60.601562 C 17.933594 60.398438 18.378906 60.171875 18.378906 59.625 L 18.378906 50.933594 C 18.378906 49.832031 18.054688 49.832031 17.28125 49.832031 L 5.960938 54.453125 L 5.960938 49.730469 Z M 17.28125 45.109375 "/>
</svg>
