<?xml version="1.0" encoding="UTF-8"?>
<svg xmlns="http://www.w3.org/2000/svg" width="30.59595" height="72.670752" viewBox="0 0 30.59595 72.670752">

<path fill-rule="nonzero" fill="currentColor" d="M 25.921875 29.007812 L 21.117188 30.976562 L 21.117188 6.351562 C 21.117188 5.703125 20.671875 5.257812 20.023438 5.257812 L 19.476562 5.257812 C 18.929688 5.257812 18.484375 5.703125 18.484375 6.351562 L 18.484375 32.070312 L 11.917969 34.703125 L 11.917969 9.53125 C 11.917969 8.984375 11.492188 8.539062 10.824219 8.539062 L 10.277344 8.539062 C 9.730469 8.539062 9.300781 8.984375 9.300781 9.53125 L 9.300781 35.796875 L 4.378906 37.644531 C 3.488281 38.191406 3.28125 38.414062 3.28125 39.078125 L 3.28125 46.074219 C 3.28125 46.84375 3.488281 47.289062 3.832031 47.289062 C 4.035156 47.289062 4.15625 47.167969 4.378906 47.167969 L 9.300781 45.203125 L 9.300781 65.992188 C 9.300781 66.644531 9.730469 67.089844 10.277344 67.089844 L 10.824219 67.089844 C 11.492188 67.089844 11.917969 66.644531 11.917969 65.992188 L 11.917969 44.105469 L 18.484375 41.472656 L 18.484375 62.8125 C 18.484375 63.359375 18.929688 63.804688 19.476562 63.804688 L 20.023438 63.804688 C 20.671875 63.804688 21.117188 63.359375 21.117188 62.8125 L 21.117188 40.378906 L 25.921875 38.414062 C 26.589844 38.191406 26.914062 37.984375 26.914062 37.4375 L 26.914062 30.101562 C 26.914062 29.230469 26.8125 28.785156 26.367188 28.785156 C 26.265625 28.785156 26.042969 28.886719 25.921875 29.007812 Z M 25.921875 29.007812 "/>
</svg>
