<?xml version="1.0" encoding="UTF-8"?>
<svg xmlns="http://www.w3.org/2000/svg" width="18.8496" height="47.002725" viewBox="0 0 18.8496 47.002725">

<path fill-rule="nonzero" fill="currentColor" d="M 3.378906 4.003906 C 6.855469 4.886719 8.265625 6.71875 8.265625 8.890625 C 8.265625 9.773438 8.042969 10.859375 7.722656 12.265625 C 7.398438 13.570312 7.179688 14.757812 7.179688 15.742188 C 7.179688 18.457031 9.351562 21.597656 13.59375 23.125 C 9.351562 24.53125 7.179688 27.464844 7.179688 30.402344 C 7.179688 31.265625 7.398438 32.453125 7.722656 33.863281 C 8.042969 35.167969 8.265625 36.253906 8.265625 37.121094 C 8.265625 39.292969 6.855469 41.140625 3.378906 42.003906 L 3.378906 42.769531 C 7.503906 42.226562 11.421875 38.96875 11.421875 34.625 C 11.421875 33.539062 11.199219 32.351562 10.980469 31.046875 C 10.539062 29.738281 10.4375 28.652344 10.4375 28.007812 C 10.4375 25.835938 12.167969 23.769531 15.324219 23.445312 L 15.324219 22.582031 C 12.167969 22.257812 10.4375 20.1875 10.4375 18.015625 C 10.4375 17.371094 10.539062 16.285156 10.980469 14.980469 C 11.199219 13.671875 11.421875 12.484375 11.421875 11.503906 C 11.421875 9.550781 10.539062 7.703125 9.25 6.074219 C 7.621094 4.546875 5.773438 3.578125 3.378906 3.257812 Z M 3.378906 4.003906 "/>
</svg>
