<?xml version="1.0" encoding="UTF-8"?>
<svg xmlns="http://www.w3.org/2000/svg" width="30.492" height="88.105248" viewBox="0 0 30.492 88.105248">

<path fill-rule="nonzero" fill="currentColor" d="M 25.730469 40.390625 C 26.277344 40.066406 26.71875 39.421875 26.71875 38.875 L 26.71875 32.65625 C 26.71875 32.210938 26.5 32.007812 26.175781 32.007812 C 25.953125 32.007812 25.835938 32.007812 25.730469 32.109375 C 25.730469 32.109375 23.992188 32.757812 23.550781 32.875 C 22.902344 32.875 22.238281 32.433594 22.238281 31.667969 L 22.238281 21.101562 C 22.238281 20.554688 21.8125 20.113281 21.046875 20.113281 C 20.175781 20.113281 19.632812 20.554688 19.632812 21.101562 L 19.632812 32.433594 C 19.632812 33.300781 19.289062 34.394531 18.539062 34.9375 C 17.449219 35.601562 14.503906 36.796875 13.085938 37.121094 C 12.203125 37.121094 11.996094 36.027344 11.996094 35.382812 L 11.996094 15.648438 L 18.199219 19.242188 L 10.683594 6.257812 L 3.273438 19.242188 L 9.371094 15.648438 L 9.371094 36.695312 C 9.371094 37.886719 8.828125 38.757812 8.28125 39.097656 C 7.839844 39.300781 6.101562 39.964844 6.101562 39.964844 C 5.453125 40.1875 5.011719 40.835938 5.011719 41.378906 L 5.011719 47.601562 C 5.011719 48.144531 5.230469 48.367188 5.777344 48.367188 L 6 48.367188 C 6.101562 48.246094 7.414062 47.820312 7.957031 47.378906 C 8.828125 47.378906 9.371094 48.027344 9.371094 48.914062 L 9.371094 57.519531 C 9.371094 58.507812 8.929688 59.273438 8.382812 59.597656 C 7.839844 59.699219 6.101562 60.464844 6.101562 60.464844 C 5.453125 60.6875 5.011719 61.335938 5.011719 61.878906 L 5.011719 68.101562 C 5.011719 68.644531 5.230469 68.867188 5.777344 68.867188 L 6 68.867188 C 6.101562 68.75 7.292969 68.320312 8.058594 68 C 8.179688 67.878906 8.28125 67.878906 8.28125 67.878906 C 8.929688 67.878906 9.371094 68.867188 9.371094 69.292969 L 9.371094 80.097656 C 9.371094 80.539062 9.917969 80.964844 10.464844 80.964844 C 11.332031 80.964844 11.996094 80.539062 11.996094 80.097656 L 11.996094 67.878906 C 11.996094 66.789062 12.421875 66.140625 12.867188 66.023438 L 18.199219 63.839844 C 18.199219 63.839844 18.199219 63.839844 18.320312 63.839844 L 18.421875 63.738281 C 19.1875 63.738281 19.632812 64.828125 19.632812 65.273438 L 19.632812 76.179688 C 19.632812 76.722656 20.175781 77.148438 20.824219 77.148438 C 21.8125 77.148438 22.238281 76.722656 22.238281 76.179688 L 22.238281 63.839844 C 22.238281 63.089844 22.683594 62.101562 23.226562 61.777344 C 23.875 61.558594 25.730469 60.910156 25.730469 60.910156 C 26.277344 60.570312 26.71875 59.921875 26.71875 59.375 L 26.71875 53.15625 C 26.71875 52.730469 26.5 52.507812 26.175781 52.507812 C 25.953125 52.507812 25.835938 52.507812 25.730469 52.609375 L 23.449219 53.480469 C 22.902344 53.480469 22.238281 52.933594 22.238281 51.84375 L 22.238281 43.78125 C 22.238281 43.117188 22.683594 41.484375 23.449219 41.277344 Z M 19.632812 54.570312 C 19.1875 56.324219 15.046875 58.0625 13.085938 58.0625 C 12.542969 58.0625 12.097656 57.84375 11.996094 57.636719 C 11.777344 57.296875 11.777344 55.335938 11.777344 53.273438 C 11.777344 50.546875 11.777344 47.480469 11.996094 46.832031 C 12.203125 45.300781 16.136719 43.460938 18.320312 43.460938 C 18.964844 43.460938 19.511719 43.664062 19.632812 44.003906 C 19.835938 44.429688 20.058594 46.613281 20.058594 49.015625 C 20.058594 51.296875 19.835938 53.820312 19.632812 54.570312 Z M 19.632812 54.570312 "/>
</svg>
