<?xml version="1.0" encoding="UTF-8"?>
<svg xmlns="http://www.w3.org/2000/svg" width="27.945225" height="89.512038" viewBox="0 0 27.945225 89.512038">

<path fill-rule="nonzero" fill="currentColor" d="M 22.226562 37.34375 C 22 37.34375 21.878906 37.464844 21.777344 37.464844 C 21.777344 37.464844 15.609375 39.449219 13.28125 39.449219 C 12.730469 39.449219 12.402344 39.328125 12.402344 39 L 12.402344 25.542969 L 18.691406 29.074219 L 12.300781 18.269531 L 12.300781 15.738281 L 18.46875 19.375 L 10.972656 6.140625 L 3.355469 19.375 L 9.644531 15.738281 L 9.644531 18.269531 L 3.355469 29.074219 L 9.644531 25.542969 L 9.644531 69.652344 C 9.75 70.203125 9.972656 70.550781 10.421875 70.550781 C 10.421875 70.550781 10.523438 70.550781 10.523438 70.429688 L 10.75 70.429688 C 10.75 70.429688 10.972656 70.429688 11.078125 70.324219 C 12.300781 69.773438 17.8125 67.671875 20.449219 67.671875 C 21.328125 67.671875 21.878906 67.894531 21.878906 68.671875 L 21.878906 81.785156 C 21.878906 82.457031 22.328125 82.886719 22.984375 82.886719 L 23.535156 82.886719 C 23.984375 82.886719 24.535156 82.457031 24.535156 81.785156 L 24.535156 37.464844 C 24.535156 37.019531 24.207031 36.792969 23.878906 36.792969 C 23.757812 36.792969 23.535156 36.792969 23.535156 36.914062 Z M 21.878906 55.867188 C 21.878906 57.417969 15.710938 59.523438 13.507812 59.523438 C 12.953125 59.523438 12.402344 59.296875 12.402344 58.96875 L 12.402344 49.804688 C 12.402344 48.597656 19.019531 46.289062 21.121094 46.289062 C 21.671875 46.289062 21.878906 46.390625 21.878906 46.71875 Z M 21.878906 55.867188 "/>
</svg>
