<?xml version="1.0" encoding="UTF-8"?>
<svg xmlns="http://www.w3.org/2000/svg" width="30.613275" height="99.419859" viewBox="0 0 30.613275 99.419859">

<path fill-rule="nonzero" fill="currentColor" d="M 26.945312 43.238281 C 26.945312 42.792969 26.722656 42.589844 26.398438 42.589844 C 26.175781 42.589844 26.058594 42.589844 25.953125 42.691406 C 25.953125 42.691406 24.210938 43.339844 23.765625 43.460938 C 23.113281 43.460938 22.445312 43.015625 22.445312 42.246094 L 22.445312 31.640625 C 22.445312 31.089844 22.019531 30.648438 21.25 30.648438 C 20.375 30.648438 19.828125 31.089844 19.828125 31.640625 L 19.828125 43.015625 C 19.828125 43.890625 19.488281 44.984375 18.734375 45.53125 C 17.640625 46.199219 14.679688 47.394531 13.257812 47.722656 C 12.371094 47.722656 12.164062 46.625 12.164062 45.976562 L 12.164062 26.265625 L 18.289062 29.773438 L 12.164062 19.046875 L 12.164062 16.515625 L 18.289062 20.140625 L 10.847656 7.105469 L 3.285156 20.140625 L 9.53125 16.515625 L 9.53125 19.046875 L 3.285156 29.773438 L 9.53125 26.265625 L 9.53125 47.292969 C 9.53125 48.492188 8.980469 49.363281 8.433594 49.707031 C 7.988281 49.910156 6.246094 50.578125 6.246094 50.578125 C 5.59375 50.800781 5.148438 51.449219 5.148438 52 L 5.148438 58.242188 C 5.148438 58.789062 5.371094 59.011719 5.917969 59.011719 L 6.140625 59.011719 C 6.246094 58.894531 7.5625 58.464844 8.109375 58.019531 C 8.980469 58.019531 9.53125 58.671875 9.53125 59.558594 L 9.53125 68.199219 C 9.53125 69.191406 9.085938 69.960938 8.539062 70.289062 C 7.988281 70.390625 6.246094 71.160156 6.246094 71.160156 C 5.59375 71.382812 5.148438 72.03125 5.148438 72.582031 L 5.148438 78.824219 C 5.148438 79.371094 5.371094 79.59375 5.917969 79.59375 L 6.140625 79.59375 C 6.246094 79.476562 7.441406 79.046875 8.210938 78.722656 C 8.332031 78.601562 8.433594 78.601562 8.433594 78.601562 C 9.085938 78.601562 9.53125 79.59375 9.53125 80.023438 L 9.53125 90.871094 C 9.53125 91.316406 10.078125 91.742188 10.625 91.742188 C 11.496094 91.742188 12.164062 91.316406 12.164062 90.871094 L 12.164062 78.601562 C 12.164062 77.507812 12.59375 76.859375 13.035156 76.738281 L 18.390625 74.546875 C 18.390625 74.546875 18.390625 74.546875 18.511719 74.546875 L 18.613281 74.445312 C 19.382812 74.445312 19.828125 75.539062 19.828125 75.984375 L 19.828125 86.933594 C 19.828125 87.480469 20.375 87.910156 21.027344 87.910156 C 22.019531 87.910156 22.445312 87.480469 22.445312 86.933594 L 22.445312 74.546875 C 22.445312 73.796875 22.890625 72.804688 23.4375 72.476562 C 24.089844 72.253906 25.953125 71.605469 25.953125 71.605469 C 26.5 71.261719 26.945312 70.613281 26.945312 70.066406 L 26.945312 63.820312 C 26.945312 63.394531 26.722656 63.171875 26.398438 63.171875 C 26.175781 63.171875 26.058594 63.171875 25.953125 63.273438 L 23.660156 64.144531 C 23.113281 64.144531 22.445312 63.597656 22.445312 62.503906 L 22.445312 54.410156 C 22.445312 53.742188 22.890625 52.101562 23.660156 51.894531 L 25.953125 51.007812 C 26.5 50.679688 26.945312 50.03125 26.945312 49.484375 Z M 19.828125 65.242188 C 19.382812 67.003906 15.226562 68.746094 13.257812 68.746094 C 12.710938 68.746094 12.265625 68.527344 12.164062 68.320312 C 11.941406 67.976562 11.941406 66.011719 11.941406 63.941406 C 11.941406 61.203125 11.941406 58.125 12.164062 57.472656 C 12.371094 55.933594 16.320312 54.085938 18.511719 54.085938 C 19.160156 54.085938 19.710938 54.289062 19.828125 54.632812 C 20.035156 55.0625 20.257812 57.25 20.257812 59.664062 C 20.257812 61.957031 20.035156 64.488281 19.828125 65.242188 Z M 19.828125 65.242188 "/>
</svg>
