<?xml version="1.0" encoding="UTF-8"?>
<svg xmlns="http://www.w3.org/2000/svg" width="35.256375" height="65.335347" viewBox="0 0 35.256375 65.335347">

<path fill-rule="nonzero" fill="currentColor" d="M 20.308594 32.128906 C 20.308594 33.214844 19.765625 33.65625 19.105469 33.65625 C 17.476562 33.65625 14.878906 31.6875 14.015625 31.484375 C 13.132812 31.144531 12.164062 31.042969 11.300781 31.042969 C 6.957031 31.042969 3.257812 34.742188 3.257812 39.289062 C 3.257812 43.855469 6.414062 47.773438 9.550781 50.589844 C 11.621094 52.441406 14.117188 53.847656 16.066406 55.699219 C 16.933594 56.460938 21.074219 59.921875 22.480469 59.921875 C 22.703125 59.921875 22.90625 59.71875 22.90625 59.5 L 22.90625 7.375 L 30.847656 7.375 C 31.167969 7.375 31.269531 7.15625 31.269531 6.933594 L 31.269531 5.203125 C 31.269531 4.984375 31.167969 4.761719 30.847656 4.761719 L 12.164062 4.761719 C 11.945312 4.761719 11.722656 4.984375 11.722656 5.203125 L 11.722656 6.933594 C 11.722656 7.15625 11.945312 7.375 12.164062 7.375 C 20.308594 7.375 20.308594 7.476562 20.308594 7.59375 Z M 20.308594 51.234375 C 20.308594 51.675781 20.308594 52.984375 19.546875 52.984375 C 17.476562 52.984375 11.621094 47.554688 10.757812 45.804688 C 9.671875 43.972656 9.230469 42.125 9.230469 40.597656 C 9.230469 38.96875 9.773438 37.457031 10.636719 36.472656 C 11.179688 35.929688 11.945312 35.609375 12.808594 35.609375 C 15.746094 35.609375 20.308594 39.289062 20.308594 42.546875 Z M 20.308594 51.234375 "/>
</svg>
