<?xml version="1.0" encoding="UTF-8"?>
<svg xmlns="http://www.w3.org/2000/svg" width="18.8496" height="47.002725" viewBox="0 0 18.8496 47.002725">

<path fill-rule="nonzero" fill="currentColor" d="M 15.324219 3.257812 C 12.929688 3.578125 10.980469 4.546875 9.453125 6.074219 C 8.042969 7.703125 7.28125 9.550781 7.28125 11.503906 C 7.28125 12.484375 7.503906 13.671875 7.722656 14.980469 C 8.042969 16.285156 8.265625 17.371094 8.265625 18.015625 C 8.265625 20.1875 6.535156 22.257812 3.378906 22.582031 L 3.378906 23.445312 C 6.535156 23.769531 8.265625 25.835938 8.265625 28.007812 C 8.265625 28.652344 8.042969 29.738281 7.722656 31.046875 C 7.503906 32.351562 7.28125 33.539062 7.28125 34.625 C 7.28125 39.085938 11.199219 42.226562 15.324219 42.769531 L 15.324219 42.003906 C 11.84375 41.140625 10.4375 39.292969 10.4375 37.121094 C 10.4375 36.253906 10.539062 35.167969 10.980469 33.863281 C 11.300781 32.453125 11.421875 31.265625 11.421875 30.402344 C 11.421875 27.464844 9.25 24.53125 5.109375 23.125 C 9.25 21.597656 11.421875 18.457031 11.421875 15.742188 C 11.421875 14.757812 11.300781 13.570312 10.980469 12.265625 C 10.539062 10.859375 10.4375 9.773438 10.4375 8.890625 C 10.4375 6.71875 11.84375 4.886719 15.324219 4.003906 Z M 15.324219 3.257812 "/>
</svg>
