<?xml version="1.0" encoding="UTF-8"?>
<svg xmlns="http://www.w3.org/2000/svg" width="43.69365" height="81.292365" viewBox="0 0 43.69365 81.292365">

<path fill-rule="nonzero" fill="currentColor" d="M 22.792969 7.105469 C 22.792969 6.109375 22.46875 5.558594 21.574219 5.558594 C 20.269531 5.558594 20.148438 6.003906 20.148438 7.207031 L 20.148438 32.710938 C 18.722656 31.492188 16.972656 30.839844 14.980469 30.839844 C 14.101562 30.839844 13.226562 30.945312 12.351562 31.285156 C 11.476562 31.492188 8.832031 33.484375 7.183594 33.484375 C 6.527344 33.484375 5.980469 33.039062 5.980469 31.941406 L 5.980469 7.105469 C 5.980469 6.109375 5.636719 5.558594 4.761719 5.558594 C 3.558594 5.558594 3.335938 6.003906 3.335938 7.207031 L 3.335938 59.644531 C 3.335938 59.867188 3.558594 60.074219 3.78125 60.074219 C 5.207031 60.074219 9.378906 56.570312 10.257812 55.796875 C 12.230469 53.925781 14.875 52.5 16.851562 50.730469 C 18.070312 49.527344 19.171875 48.429688 20.148438 47.105469 L 20.148438 65.363281 L 14 61.84375 L 21.472656 75.03125 L 29.0625 61.84375 L 22.792969 65.363281 L 22.792969 58.972656 C 24.667969 57.875 26.96875 56.019531 27.292969 55.675781 C 29.390625 53.925781 31.691406 52.5 33.5625 50.625 C 36.859375 47.773438 40.054688 43.808594 40.054688 39.1875 C 40.054688 34.585938 36.207031 30.839844 31.8125 30.839844 C 30.917969 30.839844 29.9375 30.945312 29.0625 31.285156 C 28.171875 31.492188 25.542969 33.484375 23.996094 33.484375 C 23.34375 33.484375 22.792969 33.039062 22.792969 31.941406 Z M 22.792969 42.054688 C 22.898438 41.730469 22.898438 41.609375 22.898438 41.386719 C 23.34375 40.40625 23.894531 39.632812 24.117188 39.308594 C 24.117188 37.761719 28.71875 35.460938 30.367188 35.460938 C 31.261719 35.460938 32.015625 35.785156 32.566406 36.335938 C 33.460938 37.332031 33.890625 38.859375 33.890625 40.511719 C 33.890625 46.230469 29.0625 49.972656 24.667969 52.722656 C 24.324219 52.929688 23.773438 53.046875 23.566406 53.046875 C 22.792969 53.046875 22.792969 51.726562 22.792969 51.277344 Z M 5.980469 42.484375 C 5.980469 41.386719 7.078125 39.632812 7.285156 39.1875 C 8.058594 37.660156 11.578125 35.460938 13.554688 35.460938 C 14.429688 35.460938 15.203125 35.785156 15.753906 36.335938 C 16.628906 37.332031 17.179688 38.859375 17.179688 40.511719 C 17.179688 46.125 12.230469 49.972656 7.953125 52.722656 C 7.507812 52.929688 7.078125 53.046875 6.734375 53.046875 C 5.980469 53.046875 5.980469 51.726562 5.980469 51.277344 Z M 5.980469 42.484375 "/>
</svg>
