<?xml version="1.0" encoding="UTF-8"?>
<svg xmlns="http://www.w3.org/2000/svg" width="50.302791" height="85.01031" viewBox="0 0 50.302791 85.01031">

<path fill-rule="nonzero" fill="currentColor" d="M 29.019531 25.5625 C 29.019531 24.570312 28.695312 24.023438 27.804688 24.023438 C 26.507812 24.023438 26.386719 24.46875 26.386719 25.664062 L 26.386719 51.039062 C 24.96875 49.722656 23.226562 49.175781 21.246094 49.175781 C 20.375 49.175781 19.5 49.296875 18.628906 49.621094 C 17.757812 49.84375 15.128906 51.808594 13.488281 51.808594 C 12.835938 51.808594 12.289062 51.363281 12.289062 50.167969 L 12.289062 25.015625 L 18.40625 28.515625 L 12.289062 17.804688 L 12.289062 15.273438 L 18.40625 18.898438 L 10.976562 5.875 L 3.421875 18.898438 L 9.660156 15.273438 L 9.660156 17.804688 L 3.421875 28.515625 L 9.660156 25.015625 L 9.660156 77.730469 C 9.660156 78.054688 9.882812 78.160156 10.101562 78.160156 C 11.523438 78.160156 15.675781 74.773438 16.546875 74.007812 C 18.511719 72.039062 21.140625 70.726562 23.105469 68.980469 C 24.320312 67.769531 25.414062 66.675781 26.386719 65.375 L 26.386719 77.730469 C 26.386719 78.054688 26.507812 78.160156 26.832031 78.160156 C 28.25 78.160156 32.402344 74.773438 33.273438 74.007812 C 35.257812 72.039062 37.769531 70.726562 39.734375 68.863281 C 43.015625 65.921875 46.195312 61.976562 46.195312 57.5 C 46.195312 52.800781 42.367188 49.175781 37.992188 49.175781 C 37.101562 49.175781 36.128906 49.296875 35.257812 49.621094 C 34.367188 49.84375 31.753906 51.808594 30.214844 51.808594 C 29.566406 51.808594 29.019531 51.363281 29.019531 50.167969 Z M 12.289062 60.78125 C 12.289062 57.824219 16.769531 53.671875 19.828125 53.671875 C 20.699219 53.671875 21.46875 54.097656 22.011719 54.644531 C 22.886719 55.636719 23.433594 57.175781 23.433594 58.816406 C 23.433594 64.386719 18.511719 68.214844 14.253906 70.949219 C 13.8125 71.167969 13.382812 71.167969 13.042969 71.167969 C 12.289062 71.167969 12.289062 69.957031 12.289062 69.527344 Z M 29.019531 60.234375 C 29.121094 60.011719 29.121094 59.789062 29.121094 59.6875 C 29.566406 58.695312 30.113281 57.925781 30.335938 57.601562 C 30.335938 56.285156 34.914062 53.671875 36.554688 53.671875 C 37.445312 53.671875 38.195312 54.097656 38.742188 54.644531 C 39.632812 55.636719 40.058594 57.175781 40.058594 58.816406 C 40.058594 64.488281 35.257812 68.214844 30.882812 70.949219 C 30.539062 71.167969 29.992188 71.167969 29.789062 71.167969 C 29.019531 71.167969 29.019531 69.957031 29.019531 69.527344 Z M 29.019531 60.234375 "/>
</svg>
