<?xml version="1.0" encoding="UTF-8"?>
<svg xmlns="http://www.w3.org/2000/svg" width="24.168375" height="37.3527" viewBox="0 0 24.168375 37.3527">

<path fill-rule="nonzero" fill="currentColor" d="M 20.148438 4.058594 C 20.148438 3.726562 20.148438 3.523438 20.046875 3.523438 C 19.832031 3.523438 19.613281 3.726562 19.195312 4.058594 L 4.289062 14.878906 C 3.433594 15.316406 3.214844 15.734375 3.214844 16.269531 L 3.214844 19.269531 C 3.214844 19.601562 3.316406 19.703125 3.433594 19.703125 C 3.652344 19.703125 3.851562 19.601562 4.289062 19.269531 L 19.195312 8.449219 C 19.832031 7.914062 20.148438 7.695312 20.148438 7.160156 Z M 20.148438 17.460938 C 20.148438 17.125 20.148438 17.023438 20.046875 17.023438 C 19.832031 17.023438 19.613281 17.125 19.195312 17.460938 L 4.289062 28.378906 C 3.433594 28.914062 3.214844 29.132812 3.214844 29.785156 L 3.214844 32.785156 C 3.214844 33.101562 3.316406 33.203125 3.433594 33.203125 C 3.652344 33.203125 3.851562 33.101562 4.289062 32.785156 L 19.195312 21.847656 C 19.832031 21.3125 20.148438 21.09375 20.148438 20.675781 Z M 20.148438 17.460938 "/>
</svg>
