<?xml version="1.0" encoding="UTF-8"?>
<svg xmlns="http://www.w3.org/2000/svg" width="21.846825" height="54.402579" viewBox="0 0 21.846825 54.402579">

<path fill-rule="nonzero" fill="currentColor" d="M 17.265625 34.09375 L 5.972656 38.585938 L 5.972656 4.707031 C 5.972656 4.15625 5.527344 3.710938 4.976562 3.710938 L 4.328125 3.710938 C 3.777344 3.710938 3.332031 4.15625 3.332031 4.707031 L 3.332031 49.003906 C 3.332031 49.671875 3.554688 50.101562 3.984375 50.101562 C 3.984375 50.101562 4.207031 50.101562 4.429688 49.996094 L 17.265625 44.738281 C 17.917969 44.515625 18.363281 44.292969 18.363281 43.742188 L 18.363281 35.089844 C 18.363281 34.539062 18.035156 33.992188 17.589844 33.992188 C 17.589844 33.992188 17.367188 33.992188 17.265625 34.09375 Z M 17.265625 34.09375 "/>
</svg>
