<?xml version="1.0" encoding="UTF-8"?>
<svg xmlns="http://www.w3.org/2000/svg" width="43.69365" height="103.921587" viewBox="0 0 43.69365 103.921587">

<path fill-rule="nonzero" fill="currentColor" d="M 22.796875 8.988281 C 22.796875 7.992188 22.46875 7.441406 21.574219 7.441406 C 20.265625 7.441406 20.144531 7.886719 20.144531 9.089844 L 20.144531 34.640625 C 18.71875 33.417969 16.964844 32.765625 14.96875 32.765625 C 14.089844 32.765625 13.214844 32.867188 12.335938 33.210938 C 11.457031 33.417969 8.808594 35.414062 7.15625 35.414062 C 6.503906 35.414062 5.953125 34.96875 5.953125 33.867188 L 5.953125 8.988281 C 5.953125 7.992188 5.609375 7.441406 4.730469 7.441406 C 3.527344 7.441406 3.304688 7.886719 3.304688 9.089844 L 3.304688 61.617188 C 3.304688 61.839844 3.527344 62.046875 3.75 62.046875 C 5.179688 62.046875 9.359375 58.535156 10.238281 57.761719 C 12.214844 55.886719 14.863281 54.460938 16.84375 52.6875 C 18.066406 51.484375 19.164062 50.382812 20.144531 49.058594 L 20.144531 67.34375 L 13.988281 63.820312 L 20.144531 74.710938 L 20.144531 77.136719 L 13.988281 73.609375 L 20.144531 84.414062 L 20.144531 86.941406 L 13.988281 83.3125 L 21.472656 96.402344 L 29.074219 83.3125 L 22.796875 86.941406 L 22.796875 84.414062 L 29.074219 73.609375 L 22.796875 77.136719 L 22.796875 74.710938 L 29.074219 63.820312 L 22.796875 67.34375 L 22.796875 60.945312 C 24.671875 59.84375 26.976562 57.988281 27.304688 57.640625 C 29.402344 55.886719 31.707031 54.460938 33.582031 52.585938 C 36.886719 49.726562 40.085938 45.753906 40.085938 41.125 C 40.085938 36.515625 36.230469 32.765625 31.828125 32.765625 C 30.933594 32.765625 29.953125 32.867188 29.074219 33.210938 C 28.179688 33.417969 25.546875 35.414062 24 35.414062 C 23.347656 35.414062 22.796875 34.96875 22.796875 33.867188 Z M 5.953125 44.429688 C 5.953125 43.328125 7.054688 41.574219 7.261719 41.125 C 8.035156 39.59375 11.5625 37.394531 13.539062 37.394531 C 14.417969 37.394531 15.191406 37.71875 15.742188 38.269531 C 16.621094 39.269531 17.171875 40.800781 17.171875 42.449219 C 17.171875 48.078125 12.214844 51.929688 7.929688 54.683594 C 7.484375 54.890625 7.054688 55.011719 6.710938 55.011719 C 5.953125 55.011719 5.953125 53.683594 5.953125 53.238281 Z M 22.796875 44 C 22.898438 43.671875 22.898438 43.550781 22.898438 43.328125 C 23.347656 42.347656 23.898438 41.574219 24.121094 41.246094 C 24.121094 39.699219 28.730469 37.394531 30.382812 37.394531 C 31.277344 37.394531 32.035156 37.71875 32.585938 38.269531 C 33.480469 39.269531 33.910156 40.800781 33.910156 42.449219 C 33.910156 48.179688 29.074219 51.929688 24.671875 54.683594 C 24.328125 54.890625 23.777344 55.011719 23.570312 55.011719 C 22.796875 55.011719 22.796875 53.683594 22.796875 53.238281 Z M 22.796875 44 "/>
</svg>
