<?xml version="1.0" encoding="UTF-8"?>
<svg xmlns="http://www.w3.org/2000/svg" width="28.603575" height="58.140621" viewBox="0 0 28.603575 58.140621">

<path fill-rule="nonzero" fill="currentColor" d="M 12.785156 15.851562 L 6.671875 26.574219 L 12.785156 23.074219 L 12.785156 33.007812 L 15.414062 33.007812 L 15.414062 23.074219 L 21.523438 26.574219 L 15.414062 15.851562 L 15.414062 13.460938 L 21.523438 16.945312 L 14.097656 3.953125 L 6.671875 16.945312 L 12.785156 13.460938 Z M 19.886719 45.25 C 18.914062 44.703125 15.855469 42.960938 15.855469 42.296875 C 15.855469 41.101562 18.691406 39.785156 19.886719 39.34375 C 20.226562 39.34375 20.652344 39.460938 20.976562 39.460938 C 24.257812 39.460938 24.921875 38.589844 24.921875 35.417969 C 24.921875 31.8125 24.597656 31.371094 21.097656 31.371094 C 17.152344 31.371094 17.050781 31.488281 17.050781 35.3125 C 16.609375 36.285156 15.191406 39.460938 14.097656 39.460938 C 12.902344 39.460938 11.484375 36.609375 11.144531 35.3125 C 11.144531 33.878906 10.941406 32.242188 10.496094 31.917969 C 10.171875 31.488281 8.753906 31.371094 7.320312 31.371094 C 5.800781 31.371094 4.265625 31.488281 3.71875 31.917969 C 3.496094 32.136719 3.289062 33.554688 3.289062 35.195312 C 3.289062 36.730469 3.496094 38.371094 3.71875 38.589844 C 4.382812 39.136719 5.902344 39.460938 7.441406 39.460938 C 7.765625 39.460938 7.984375 39.34375 8.308594 39.34375 C 9.300781 39.890625 12.355469 41.648438 12.355469 42.296875 C 12.355469 43.390625 9.625 44.804688 8.414062 45.25 L 7.542969 45.25 C 5.902344 45.25 4.265625 45.351562 3.71875 45.796875 C 3.496094 46.121094 3.289062 47.539062 3.289062 49.175781 C 3.289062 50.714844 3.496094 52.351562 3.71875 52.453125 C 4.382812 53 5.800781 53.34375 7.21875 53.34375 C 8.53125 53.34375 9.949219 53.121094 10.496094 52.453125 C 11.042969 52.027344 11.144531 50.609375 11.144531 49.175781 C 11.144531 49.074219 11.265625 48.851562 11.367188 48.851562 C 11.914062 47.539062 12.902344 45.148438 14.097656 45.148438 C 15.191406 45.148438 16.726562 47.980469 17.050781 49.175781 C 17.050781 50.714844 17.152344 52.25 17.496094 52.453125 C 18.042969 53 19.457031 53.34375 20.976562 53.34375 C 22.414062 53.34375 23.710938 53.121094 24.257812 52.453125 C 24.699219 52.027344 24.921875 50.714844 24.921875 49.296875 C 24.921875 47.878906 24.597656 46.242188 24.257812 45.796875 C 23.828125 45.351562 22.292969 45.25 20.773438 45.25 Z M 19.886719 45.25 "/>
</svg>
