<?xml version="1.0" encoding="UTF-8"?>
<svg xmlns="http://www.w3.org/2000/svg" width="28.603575" height="40.696425" viewBox="0 0 28.603575 40.696425">

<path fill-rule="nonzero" fill="currentColor" d="M 24.058594 3.855469 C 24.058594 3.527344 23.71875 3.410156 23.511719 3.410156 L 4.699219 3.410156 C 4.476562 3.410156 4.253906 3.527344 4.253906 3.855469 L 4.253906 5.597656 C 4.253906 5.820312 4.476562 6.039062 4.699219 6.039062 L 12.78125 6.039062 L 12.78125 14.347656 C 12.78125 14.566406 13.003906 14.894531 13.226562 14.894531 L 14.96875 14.894531 C 15.191406 14.894531 15.414062 14.566406 15.414062 14.347656 L 15.414062 6.039062 L 23.511719 6.039062 C 23.71875 6.039062 24.058594 5.820312 24.058594 5.597656 Z M 19.890625 28.886719 C 18.917969 28.339844 15.859375 26.597656 15.859375 25.949219 C 15.859375 24.734375 18.695312 23.417969 19.890625 22.992188 C 20.230469 22.992188 20.660156 23.09375 20.984375 23.09375 C 24.265625 23.09375 24.929688 22.222656 24.929688 19.046875 C 24.929688 15.660156 24.605469 14.894531 21.105469 14.894531 C 19.464844 14.894531 17.925781 15.113281 17.5 15.558594 C 17.15625 15.765625 17.054688 17.40625 17.054688 18.941406 C 16.609375 19.933594 15.191406 23.09375 14.097656 23.09375 C 12.902344 23.09375 11.484375 20.140625 11.140625 18.941406 C 11.140625 17.523438 10.9375 15.882812 10.492188 15.558594 C 10.167969 15.113281 8.75 14.894531 7.3125 14.894531 C 5.792969 14.894531 4.253906 15.113281 3.707031 15.558594 C 3.484375 15.765625 3.28125 17.199219 3.28125 18.839844 C 3.28125 20.359375 3.484375 21.898438 3.707031 22.222656 C 4.375 22.769531 5.894531 23.09375 7.433594 23.09375 C 7.757812 23.09375 7.980469 22.992188 8.304688 22.992188 C 9.296875 23.539062 12.355469 25.28125 12.355469 25.828125 C 12.355469 27.042969 9.621094 28.460938 8.40625 28.886719 L 7.535156 28.886719 C 5.894531 28.886719 4.253906 29.007812 3.707031 29.433594 C 3.484375 29.777344 3.28125 31.195312 3.28125 32.835938 C 3.28125 34.355469 3.484375 35.894531 3.707031 36.117188 C 4.375 36.664062 5.792969 36.988281 7.210938 36.988281 C 8.527344 36.988281 9.945312 36.765625 10.492188 36.117188 C 11.039062 35.671875 11.140625 34.152344 11.140625 32.835938 C 11.140625 32.714844 11.261719 32.511719 11.363281 32.390625 C 11.910156 31.195312 12.902344 28.785156 14.097656 28.785156 C 15.191406 28.785156 16.730469 31.519531 17.054688 32.835938 C 17.054688 34.355469 17.15625 35.894531 17.5 36.117188 C 18.046875 36.664062 19.464844 36.988281 20.984375 36.988281 C 22.417969 36.988281 23.71875 36.765625 24.265625 36.117188 C 24.710938 35.671875 24.929688 34.355469 24.929688 32.9375 C 24.929688 31.519531 24.605469 29.878906 24.265625 29.433594 C 23.839844 29.007812 22.300781 28.886719 20.777344 28.886719 Z M 19.890625 28.886719 "/>
</svg>
