<?xml version="1.0" encoding="UTF-8"?>
<svg xmlns="http://www.w3.org/2000/svg" width="27.945225" height="100.706067" viewBox="0 0 27.945225 100.706067">

<path fill-rule="nonzero" fill="currentColor" d="M 22.246094 47.832031 C 22.019531 47.832031 21.898438 47.953125 21.796875 47.953125 C 21.796875 47.953125 15.613281 49.9375 13.28125 49.9375 C 12.726562 49.9375 12.398438 49.816406 12.398438 49.488281 L 12.398438 36.222656 L 18.480469 39.539062 L 12.296875 28.707031 L 12.296875 26.273438 L 18.480469 29.8125 L 12.296875 18.984375 L 12.296875 16.546875 L 18.480469 20.089844 L 10.964844 6.925781 L 3.328125 20.089844 L 9.636719 16.546875 L 9.636719 18.984375 L 3.328125 29.8125 L 9.636719 26.273438 L 9.636719 28.707031 L 3.328125 39.539062 L 9.636719 36 L 9.636719 80.222656 C 9.738281 80.773438 9.964844 81.121094 10.414062 81.121094 C 10.414062 81.121094 10.515625 81.121094 10.515625 81 L 10.742188 81 C 10.742188 81 10.964844 81 11.070312 80.894531 C 12.296875 80.34375 17.824219 78.234375 20.464844 78.234375 C 21.347656 78.234375 21.898438 78.460938 21.898438 79.238281 L 21.898438 92.382812 C 21.898438 93.054688 22.347656 93.488281 23.003906 93.488281 L 23.558594 93.488281 C 24.007812 93.488281 24.558594 93.054688 24.558594 92.382812 L 24.558594 47.953125 C 24.558594 47.503906 24.230469 47.277344 23.902344 47.277344 C 23.78125 47.277344 23.558594 47.277344 23.558594 47.398438 Z M 21.898438 66.402344 C 21.898438 67.957031 15.714844 70.0625 13.503906 70.0625 C 12.953125 70.0625 12.398438 69.839844 12.398438 69.511719 L 12.398438 60.320312 C 12.398438 59.113281 19.03125 56.796875 21.140625 56.796875 C 21.691406 56.796875 21.898438 56.902344 21.898438 57.230469 Z M 21.898438 66.402344 "/>
</svg>
