<?xml version="1.0" encoding="UTF-8"?>
<svg xmlns="http://www.w3.org/2000/svg" width="28.603575" height="57.618099" viewBox="0 0 28.603575 57.618099">

<path fill-rule="nonzero" fill="currentColor" d="M 19.890625 18.121094 C 18.917969 17.574219 15.859375 15.832031 15.859375 15.179688 C 15.859375 13.96875 18.695312 12.652344 19.890625 12.226562 C 20.230469 12.226562 20.660156 12.328125 20.984375 12.328125 C 24.265625 12.328125 24.929688 11.457031 24.929688 8.277344 C 24.929688 4.894531 24.605469 4.125 21.105469 4.125 C 19.464844 4.125 17.925781 4.347656 17.5 4.792969 C 17.15625 4.996094 17.054688 6.636719 17.054688 8.175781 C 16.609375 9.164062 15.191406 12.328125 14.097656 12.328125 C 12.902344 12.328125 11.484375 9.371094 11.140625 8.175781 C 11.140625 6.757812 10.9375 5.117188 10.492188 4.792969 C 10.167969 4.347656 8.75 4.125 7.3125 4.125 C 5.792969 4.125 4.253906 4.347656 3.707031 4.792969 C 3.484375 4.996094 3.28125 6.433594 3.28125 8.070312 C 3.28125 9.59375 3.484375 11.132812 3.707031 11.457031 C 4.375 12.003906 5.894531 12.328125 7.433594 12.328125 C 7.757812 12.328125 7.980469 12.226562 8.304688 12.226562 C 9.296875 12.769531 12.355469 14.515625 12.355469 15.0625 C 12.355469 16.273438 9.621094 17.691406 8.40625 18.121094 L 7.535156 18.121094 C 5.894531 18.121094 4.253906 18.238281 3.707031 18.667969 C 3.484375 19.007812 3.28125 20.425781 3.28125 22.066406 C 3.28125 23.589844 3.484375 25.125 3.707031 25.347656 C 4.375 25.894531 5.792969 26.21875 7.210938 26.21875 C 8.527344 26.21875 9.945312 25.996094 10.492188 25.347656 C 11.039062 24.902344 11.140625 23.382812 11.140625 22.066406 C 11.140625 21.949219 11.261719 21.742188 11.363281 21.625 C 11.910156 20.425781 12.902344 18.015625 14.097656 18.015625 C 15.191406 18.015625 16.730469 20.75 17.054688 22.066406 C 17.054688 23.589844 17.15625 25.125 17.5 25.347656 C 18.046875 25.894531 19.464844 26.21875 20.984375 26.21875 C 22.417969 26.21875 23.71875 25.996094 24.265625 25.347656 C 24.710938 24.902344 24.929688 23.589844 24.929688 22.171875 C 24.929688 20.75 24.605469 19.109375 24.265625 18.667969 C 23.839844 18.238281 22.300781 18.121094 20.777344 18.121094 Z M 12.78125 43.617188 L 6.664062 40.113281 L 14.097656 53.117188 L 21.53125 40.113281 L 15.414062 43.617188 L 15.414062 41.207031 L 21.53125 30.371094 L 15.414062 33.976562 L 15.414062 24.03125 L 12.78125 24.03125 L 12.78125 33.976562 L 6.664062 30.371094 L 12.78125 41.207031 Z M 12.78125 43.617188 "/>
</svg>
