<?xml version="1.0" encoding="UTF-8"?>
<svg xmlns="http://www.w3.org/2000/svg" width="35.360325" height="65.335347" viewBox="0 0 35.360325 65.335347">

<path fill-rule="nonzero" fill="currentColor" d="M 14.378906 7.523438 C 14.378906 7.402344 14.378906 7.300781 22.429688 7.300781 C 22.75 7.300781 22.972656 7.078125 22.972656 6.859375 L 22.972656 5.121094 C 22.972656 4.902344 22.75 4.679688 22.429688 4.679688 L 3.691406 4.679688 C 3.488281 4.679688 3.265625 4.902344 3.265625 5.121094 L 3.265625 6.859375 C 3.265625 7.078125 3.488281 7.300781 3.691406 7.300781 L 11.757812 7.300781 L 11.757812 59.578125 C 11.757812 59.796875 11.980469 60.003906 12.203125 60.003906 C 13.613281 60.003906 17.75 56.53125 18.617188 55.765625 C 20.574219 53.910156 23.09375 52.5 25.050781 50.644531 C 28.316406 47.816406 31.464844 43.886719 31.464844 39.308594 C 31.464844 34.75 27.652344 31.039062 23.296875 31.039062 C 22.429688 31.039062 21.5625 31.140625 20.691406 31.480469 C 19.824219 31.6875 17.203125 33.660156 15.570312 33.660156 C 14.925781 33.660156 14.378906 33.21875 14.378906 32.128906 Z M 14.378906 42.578125 C 14.378906 41.488281 15.46875 39.753906 15.671875 39.308594 C 16.4375 37.796875 19.925781 35.617188 21.882812 35.617188 C 22.75 35.617188 23.519531 35.941406 24.0625 36.484375 C 24.929688 37.472656 25.476562 38.988281 25.476562 40.621094 C 25.476562 46.183594 20.574219 49.996094 16.335938 52.71875 C 15.894531 52.921875 15.46875 53.042969 15.128906 53.042969 C 14.378906 53.042969 14.378906 51.730469 14.378906 51.289062 Z M 14.378906 42.578125 "/>
</svg>
