<?xml version="1.0" encoding="UTF-8"?>
<svg xmlns="http://www.w3.org/2000/svg" width="24.168375" height="37.3527" viewBox="0 0 24.168375 37.3527">

<path fill-rule="nonzero" fill="currentColor" d="M 3.214844 7.160156 C 3.214844 7.695312 3.535156 7.914062 4.289062 8.449219 L 19.195312 19.269531 C 19.511719 19.601562 19.730469 19.703125 19.929688 19.703125 C 20.148438 19.703125 20.148438 19.601562 20.148438 19.269531 L 20.148438 16.269531 C 20.148438 15.734375 19.929688 15.316406 19.195312 14.878906 L 4.289062 4.058594 C 3.851562 3.726562 3.535156 3.523438 3.433594 3.523438 C 3.214844 3.523438 3.214844 3.726562 3.214844 4.058594 Z M 3.214844 20.675781 C 3.214844 21.09375 3.535156 21.3125 4.289062 21.847656 L 19.195312 32.785156 C 19.511719 33.101562 19.730469 33.203125 19.929688 33.203125 C 20.148438 33.203125 20.148438 33.101562 20.148438 32.785156 L 20.148438 29.785156 C 20.148438 29.132812 19.929688 28.914062 19.195312 28.378906 L 4.289062 17.460938 C 3.851562 17.125 3.535156 17.023438 3.433594 17.023438 C 3.214844 17.023438 3.214844 17.125 3.214844 17.460938 Z M 3.214844 20.675781 "/>
</svg>
