<?xml version="1.0" encoding="UTF-8"?>
<svg xmlns="http://www.w3.org/2000/svg" width="27.72" height="78.458688" viewBox="0 0 27.72 78.458688">

<path fill-rule="nonzero" fill="currentColor" d="M 18.007812 63.007812 L 18.007812 19.648438 C 18.007812 19.203125 17.667969 18.996094 17.339844 18.996094 C 17.238281 18.996094 17.117188 18.996094 17.015625 19.101562 L 15.695312 19.546875 C 15.472656 19.546875 15.367188 19.546875 15.367188 19.546875 C 15.367188 19.546875 9.109375 21.621094 6.808594 21.621094 C 6.261719 21.621094 5.933594 21.519531 5.933594 21.191406 L 5.933594 6.476562 C 5.933594 5.925781 5.386719 5.480469 4.835938 5.480469 L 4.390625 5.480469 C 3.738281 5.480469 3.292969 5.925781 3.292969 6.476562 L 3.292969 51.707031 C 3.292969 52.253906 3.515625 52.476562 4.066406 52.476562 L 4.289062 52.476562 C 4.390625 52.476562 4.492188 52.476562 4.613281 52.355469 C 5.8125 51.808594 11.421875 49.734375 13.945312 49.734375 C 14.820312 49.734375 15.367188 49.9375 15.367188 50.710938 L 15.367188 63.007812 L 9.226562 59.492188 L 16.6875 72.441406 L 24.148438 59.492188 Z M 5.933594 31.945312 C 5.933594 30.730469 12.519531 28.429688 14.597656 28.429688 C 15.144531 28.429688 15.367188 28.53125 15.367188 28.875 L 15.367188 37.984375 C 15.367188 39.511719 9.226562 41.5 7.03125 41.5 C 6.484375 41.5 5.933594 41.378906 5.933594 41.054688 Z M 5.933594 31.945312 "/>
</svg>
