<?xml version="1.0" encoding="UTF-8"?>
<svg xmlns="http://www.w3.org/2000/svg" width="30.613275" height="110.73447" viewBox="0 0 30.613275 110.73447">

<path fill-rule="nonzero" fill="currentColor" d="M 26.945312 53.867188 C 26.945312 53.421875 26.722656 53.21875 26.398438 53.21875 C 26.175781 53.21875 26.058594 53.21875 25.953125 53.320312 C 25.953125 53.320312 24.210938 53.96875 23.765625 54.089844 C 23.113281 54.089844 22.445312 53.644531 22.445312 52.875 L 22.445312 42.269531 C 22.445312 41.71875 22.019531 41.273438 21.25 41.273438 C 20.375 41.273438 19.828125 41.71875 19.828125 42.269531 L 19.828125 53.644531 C 19.828125 54.515625 19.488281 55.613281 18.734375 56.160156 C 17.640625 56.828125 14.679688 58.023438 13.257812 58.351562 C 12.371094 58.351562 12.164062 57.253906 12.164062 56.605469 L 12.164062 37 L 18.289062 40.402344 L 12.164062 29.675781 L 12.164062 27.144531 L 18.289062 30.769531 L 12.164062 20.027344 L 12.164062 17.511719 L 18.289062 21.121094 L 10.847656 8.101562 L 3.285156 21.121094 L 9.53125 17.511719 L 9.53125 20.027344 L 3.285156 30.769531 L 9.53125 27.144531 L 9.53125 29.675781 L 3.285156 40.402344 L 9.53125 36.894531 L 9.53125 57.921875 C 9.53125 59.121094 8.980469 59.992188 8.433594 60.335938 C 7.988281 60.539062 6.246094 61.207031 6.246094 61.207031 C 5.59375 61.429688 5.148438 62.078125 5.148438 62.628906 L 5.148438 68.871094 C 5.148438 69.417969 5.371094 69.640625 5.917969 69.640625 L 6.140625 69.640625 C 6.246094 69.523438 7.5625 69.09375 8.109375 68.648438 C 8.980469 68.648438 9.53125 69.300781 9.53125 70.1875 L 9.53125 78.828125 C 9.53125 79.820312 9.085938 80.589844 8.539062 80.917969 C 7.988281 81.019531 6.246094 81.789062 6.246094 81.789062 C 5.59375 82.011719 5.148438 82.660156 5.148438 83.210938 L 5.148438 89.453125 C 5.148438 90 5.371094 90.222656 5.917969 90.222656 L 6.140625 90.222656 C 6.246094 90.105469 7.441406 89.675781 8.210938 89.351562 C 8.332031 89.230469 8.433594 89.230469 8.433594 89.230469 C 9.085938 89.230469 9.53125 90.222656 9.53125 90.652344 L 9.53125 101.5 C 9.53125 101.941406 10.078125 102.371094 10.625 102.371094 C 11.496094 102.371094 12.164062 101.941406 12.164062 101.5 L 12.164062 89.230469 C 12.164062 88.136719 12.59375 87.488281 13.035156 87.367188 L 18.390625 85.175781 C 18.390625 85.175781 18.390625 85.175781 18.511719 85.175781 L 18.613281 85.074219 C 19.382812 85.074219 19.828125 86.167969 19.828125 86.613281 L 19.828125 97.5625 C 19.828125 98.109375 20.375 98.539062 21.027344 98.539062 C 22.019531 98.539062 22.445312 98.109375 22.445312 97.5625 L 22.445312 85.175781 C 22.445312 84.425781 22.890625 83.429688 23.4375 83.105469 C 24.089844 82.882812 25.953125 82.234375 25.953125 82.234375 C 26.5 81.890625 26.945312 81.242188 26.945312 80.695312 L 26.945312 74.449219 C 26.945312 74.023438 26.722656 73.800781 26.398438 73.800781 C 26.175781 73.800781 26.058594 73.800781 25.953125 73.902344 L 23.660156 74.773438 C 23.113281 74.773438 22.445312 74.226562 22.445312 73.132812 L 22.445312 65.039062 C 22.445312 64.371094 22.890625 62.730469 23.660156 62.523438 L 25.953125 61.636719 C 26.5 61.308594 26.945312 60.660156 26.945312 60.113281 Z M 19.828125 75.871094 C 19.382812 77.632812 15.226562 79.375 13.257812 79.375 C 12.710938 79.375 12.265625 79.15625 12.164062 78.949219 C 11.941406 78.605469 11.941406 76.640625 11.941406 74.570312 C 11.941406 71.832031 11.941406 68.753906 12.164062 68.101562 C 12.371094 66.5625 16.320312 64.714844 18.511719 64.714844 C 19.160156 64.714844 19.710938 64.917969 19.828125 65.261719 C 20.035156 65.691406 20.257812 67.878906 20.257812 70.292969 C 20.257812 72.585938 20.035156 75.117188 19.828125 75.871094 Z M 19.828125 75.871094 "/>
</svg>
