<?xml version="1.0" encoding="UTF-8"?>
<svg xmlns="http://www.w3.org/2000/svg" width="24.168375" height="50.805216" viewBox="0 0 24.168375 50.805216">

<path fill-rule="nonzero" fill="currentColor" d="M 3.214844 7.890625 C 3.214844 8.308594 3.535156 8.527344 4.289062 9.0625 L 19.195312 20 C 19.511719 20.316406 19.730469 20.433594 19.929688 20.433594 C 20.148438 20.433594 20.148438 20.316406 20.148438 20 L 20.148438 17 C 20.148438 16.347656 19.929688 16.148438 19.195312 15.609375 L 4.289062 4.675781 C 3.851562 4.355469 3.535156 4.136719 3.433594 4.136719 C 3.214844 4.136719 3.214844 4.355469 3.214844 4.675781 Z M 3.214844 20.433594 C 3.214844 20.96875 3.535156 21.171875 4.289062 21.707031 L 19.195312 32.542969 C 19.511719 32.863281 19.730469 32.960938 19.929688 32.960938 C 20.148438 32.960938 20.148438 32.863281 20.148438 32.542969 L 20.148438 29.546875 C 20.148438 29.011719 19.929688 28.574219 19.195312 28.140625 L 4.289062 17.320312 C 3.851562 17 3.535156 16.785156 3.433594 16.785156 C 3.214844 16.785156 3.214844 17 3.214844 17.320312 Z M 3.214844 33.933594 C 3.214844 34.371094 3.535156 34.570312 4.289062 35.105469 L 19.195312 46.042969 C 19.511719 46.363281 19.730469 46.480469 19.929688 46.480469 C 20.148438 46.480469 20.148438 46.363281 20.148438 46.042969 L 20.148438 43.046875 C 20.148438 42.410156 19.929688 42.191406 19.195312 41.65625 L 4.289062 30.71875 C 3.851562 30.398438 3.535156 30.28125 3.433594 30.28125 C 3.214844 30.28125 3.214844 30.398438 3.214844 30.71875 Z M 3.214844 33.933594 "/>
</svg>
