<?xml version="1.0" encoding="UTF-8"?>
<svg xmlns="http://www.w3.org/2000/svg" width="32.934825" height="81.412947" viewBox="0 0 32.934825 81.412947">

<path fill-rule="nonzero" fill="currentColor" d="M 28.484375 34.300781 C 29.035156 33.972656 29.480469 33.320312 29.480469 32.769531 L 29.480469 26.492188 C 29.480469 26.042969 29.257812 25.835938 28.929688 25.835938 C 28.707031 25.835938 28.585938 25.835938 28.484375 25.941406 C 28.484375 25.941406 26.730469 26.59375 26.28125 26.714844 C 25.628906 26.714844 24.957031 26.265625 24.957031 25.492188 L 24.957031 14.828125 C 24.957031 14.277344 24.527344 13.832031 23.753906 13.832031 C 22.875 13.832031 22.328125 14.277344 22.328125 14.828125 L 22.328125 26.265625 C 22.328125 27.144531 21.980469 28.246094 21.226562 28.796875 C 20.125 29.464844 17.148438 30.671875 15.722656 30.996094 C 14.828125 30.996094 14.621094 29.898438 14.621094 29.242188 L 14.621094 8.222656 L 22.757812 8.222656 C 22.980469 8.222656 23.203125 7.878906 23.203125 7.777344 L 23.203125 6.023438 C 23.203125 5.675781 22.980469 5.574219 22.757812 5.574219 L 3.816406 5.574219 C 3.492188 5.574219 3.386719 5.675781 3.386719 6.023438 L 3.386719 7.777344 C 3.386719 7.878906 3.492188 8.222656 3.816406 8.222656 L 11.972656 8.222656 L 11.972656 30.566406 C 11.972656 31.773438 11.421875 32.648438 10.871094 32.992188 C 10.421875 33.199219 8.667969 33.871094 8.667969 33.871094 C 8.015625 34.09375 7.566406 34.746094 7.566406 35.296875 L 7.566406 41.574219 C 7.566406 42.125 7.792969 42.351562 8.34375 42.351562 L 8.566406 42.351562 C 8.667969 42.230469 9.992188 41.800781 10.542969 41.351562 C 11.421875 41.351562 11.972656 42.007812 11.972656 42.902344 L 11.972656 51.585938 C 11.972656 52.585938 11.523438 53.359375 10.972656 53.6875 C 10.421875 53.789062 8.667969 54.5625 8.667969 54.5625 C 8.015625 54.785156 7.566406 55.441406 7.566406 55.992188 L 7.566406 62.269531 C 7.566406 62.820312 7.792969 63.042969 8.34375 63.042969 L 8.566406 63.042969 C 8.667969 62.921875 9.871094 62.492188 10.648438 62.164062 C 10.765625 62.046875 10.871094 62.046875 10.871094 62.046875 C 11.523438 62.046875 11.972656 63.042969 11.972656 63.472656 L 11.972656 74.378906 C 11.972656 74.824219 12.523438 75.253906 13.074219 75.253906 C 13.949219 75.253906 14.621094 74.824219 14.621094 74.378906 L 14.621094 62.046875 C 14.621094 60.945312 15.050781 60.289062 15.496094 60.171875 L 20.882812 57.96875 C 20.882812 57.96875 20.882812 57.96875 21 57.96875 L 21.105469 57.867188 C 21.878906 57.867188 22.328125 58.964844 22.328125 59.414062 L 22.328125 70.421875 C 22.328125 70.972656 22.875 71.402344 23.53125 71.402344 C 24.527344 71.402344 24.957031 70.972656 24.957031 70.421875 L 24.957031 57.96875 C 24.957031 57.210938 25.40625 56.214844 25.957031 55.886719 C 26.609375 55.664062 28.484375 55.011719 28.484375 55.011719 C 29.035156 54.667969 29.480469 54.011719 29.480469 53.460938 L 29.480469 47.183594 C 29.480469 46.753906 29.257812 46.53125 28.929688 46.53125 C 28.707031 46.53125 28.585938 46.53125 28.484375 46.632812 L 26.179688 47.511719 C 25.628906 47.511719 24.957031 46.960938 24.957031 45.859375 L 24.957031 37.722656 C 24.957031 37.050781 25.40625 35.402344 26.179688 35.195312 Z M 22.328125 48.609375 C 21.878906 50.382812 17.699219 52.136719 15.722656 52.136719 C 15.171875 52.136719 14.722656 51.914062 14.621094 51.707031 C 14.398438 51.363281 14.398438 49.386719 14.398438 47.304688 C 14.398438 44.550781 14.398438 41.457031 14.621094 40.800781 C 14.828125 39.253906 18.800781 37.394531 21 37.394531 C 21.65625 37.394531 22.207031 37.601562 22.328125 37.945312 C 22.53125 38.375 22.757812 40.578125 22.757812 43.003906 C 22.757812 45.308594 22.53125 47.855469 22.328125 48.609375 Z M 22.328125 48.609375 "/>
</svg>
