<?xml version="1.0" encoding="UTF-8"?>
<svg xmlns="http://www.w3.org/2000/svg" width="45.01035" height="35.03115" viewBox="0 0 45.01035 35.03115">

<path fill-rule="nonzero" fill="currentColor" d="M 40.6875 7.332031 L 36.167969 7.332031 C 36.167969 11.867188 34.972656 12.085938 31.734375 12.085938 C 30.554688 12.085938 29.15625 11.648438 27.417969 10.570312 L 17.386719 4.636719 C 15.871094 3.777344 14.25 3.238281 12.632812 3.238281 C 7.035156 3.238281 3.800781 5.933594 3.359375 14.027344 L 7.894531 14.027344 C 8.316406 9.273438 10.054688 9.054688 12.53125 9.054688 C 13.390625 9.054688 15.332031 9.710938 16.207031 10.25 L 24.722656 15.644531 C 26.878906 17.042969 29.476562 17.902344 31.632812 17.902344 C 37.246094 17.902344 40.6875 15.324219 40.6875 7.332031 Z M 40.6875 20.28125 L 36.167969 20.28125 C 36.167969 24.816406 34.972656 25.035156 31.734375 25.035156 C 30.554688 25.035156 29.15625 24.597656 27.417969 23.519531 L 17.386719 17.582031 C 15.871094 16.722656 14.25 16.183594 12.632812 16.183594 C 7.035156 16.183594 3.800781 18.882812 3.359375 26.972656 L 7.894531 26.972656 C 8.316406 22.21875 10.054688 22 12.53125 22 C 13.390625 22 15.332031 22.65625 16.207031 23.199219 L 24.722656 28.59375 C 26.878906 29.992188 29.476562 30.851562 31.632812 30.851562 C 36.808594 30.851562 40.148438 27.191406 40.6875 20.28125 Z M 40.6875 20.28125 "/>
</svg>
