<?xml version="1.0" encoding="UTF-8"?>
<svg xmlns="http://www.w3.org/2000/svg" width="28.603575" height="47.02005" viewBox="0 0 28.603575 47.02005">

<path fill-rule="nonzero" fill="currentColor" d="M 21.480469 16.191406 L 14.097656 3.257812 L 6.714844 16.191406 L 12.792969 12.710938 L 12.792969 22.589844 L 15.40625 22.589844 L 15.40625 12.710938 Z M 19.851562 34.757812 C 18.886719 34.214844 15.847656 32.484375 15.847656 31.820312 C 15.847656 30.632812 18.664062 29.328125 19.851562 28.886719 C 20.191406 28.886719 20.617188 29.003906 20.9375 29.003906 C 24.195312 29.003906 24.859375 28.136719 24.859375 24.980469 C 24.859375 21.402344 24.535156 20.960938 21.058594 20.960938 C 17.136719 20.960938 17.035156 21.078125 17.035156 24.878906 C 16.59375 25.847656 15.183594 29.003906 14.097656 29.003906 C 12.910156 29.003906 11.503906 26.167969 11.164062 24.878906 C 11.164062 23.453125 10.960938 21.824219 10.519531 21.503906 C 10.195312 21.078125 8.789062 20.960938 7.363281 20.960938 C 5.851562 20.960938 4.324219 21.078125 3.78125 21.503906 C 3.558594 21.722656 3.355469 23.132812 3.355469 24.761719 C 3.355469 26.289062 3.558594 27.917969 3.78125 28.136719 C 4.441406 28.679688 5.953125 29.003906 7.480469 29.003906 C 7.804688 29.003906 8.023438 28.886719 8.347656 28.886719 C 9.332031 29.429688 12.367188 31.175781 12.367188 31.820312 C 12.367188 32.90625 9.652344 34.316406 8.449219 34.757812 L 7.582031 34.757812 C 5.953125 34.757812 4.324219 34.859375 3.78125 35.300781 C 3.558594 35.621094 3.355469 37.03125 3.355469 38.660156 C 3.355469 40.1875 3.558594 41.816406 3.78125 41.917969 C 4.441406 42.460938 5.851562 42.800781 7.257812 42.800781 C 8.566406 42.800781 9.976562 42.582031 10.519531 41.917969 C 11.0625 41.496094 11.164062 40.085938 11.164062 38.660156 C 11.164062 38.558594 11.28125 38.339844 11.382812 38.339844 C 11.925781 37.03125 12.910156 34.65625 14.097656 34.65625 C 15.183594 34.65625 16.710938 37.472656 17.035156 38.660156 C 17.035156 40.1875 17.136719 41.714844 17.476562 41.917969 C 18.019531 42.460938 19.429688 42.800781 20.9375 42.800781 C 22.363281 42.800781 23.652344 42.582031 24.195312 41.917969 C 24.636719 41.496094 24.859375 40.1875 24.859375 38.78125 C 24.859375 37.371094 24.535156 35.742188 24.195312 35.300781 C 23.773438 34.859375 22.246094 34.757812 20.734375 34.757812 Z M 19.851562 34.757812 "/>
</svg>
