<?xml version="1.0" encoding="UTF-8"?>
<svg xmlns="http://www.w3.org/2000/svg" width="33.038775" height="96.586182" viewBox="0 0 33.038775 96.586182">

<path fill-rule="nonzero" fill="currentColor" d="M 14.984375 37.703125 L 17.996094 39.523438 L 11.96875 28.96875 L 11.96875 26.492188 L 17.996094 29.945312 L 11.96875 19.386719 L 11.96875 17.015625 L 17.996094 20.464844 L 10.671875 7.636719 L 3.230469 20.464844 L 9.378906 17.015625 L 9.378906 19.386719 L 3.230469 29.945312 L 9.378906 26.492188 L 9.378906 28.96875 L 3.230469 39.421875 L 9.378906 35.96875 L 9.378906 88.125 C 9.378906 88.34375 9.597656 88.546875 9.816406 88.546875 C 11.210938 88.546875 15.304688 85.113281 16.160156 84.355469 C 18.097656 82.519531 20.589844 81.121094 22.527344 79.289062 C 25.757812 76.492188 28.871094 72.605469 28.871094 68.074219 C 28.871094 63.5625 25.101562 59.894531 20.792969 59.894531 C 19.933594 59.894531 19.074219 59.996094 18.214844 60.332031 C 17.355469 60.535156 14.765625 62.484375 13.148438 62.484375 C 12.507812 62.484375 11.96875 62.046875 11.96875 60.972656 L 11.96875 36.089844 Z M 11.96875 71.308594 C 11.96875 70.230469 13.046875 68.511719 13.25 68.074219 C 14.007812 66.578125 17.457031 64.421875 19.394531 64.421875 C 20.253906 64.421875 21.011719 64.742188 21.550781 65.28125 C 22.40625 66.257812 22.945312 67.753906 22.945312 69.371094 C 22.945312 74.875 18.097656 78.648438 13.90625 81.339844 C 13.46875 81.542969 13.046875 81.660156 12.710938 81.660156 C 11.96875 81.660156 11.96875 80.363281 11.96875 79.925781 Z M 11.96875 71.308594 "/>
</svg>
