<?xml version="1.0" encoding="UTF-8"?>
<svg xmlns="http://www.w3.org/2000/svg" width="25.727625" height="62.592069" viewBox="0 0 25.727625 62.592069">

<path fill-rule="nonzero" fill="currentColor" d="M 22.167969 5.496094 C 22.167969 4.945312 21.496094 4.398438 20.625 4.398438 C 19.75 4.398438 19.097656 4.722656 19.097656 5.496094 L 19.097656 32.253906 C 18.105469 31.707031 17.007812 31.054688 15.804688 30.507812 L 15.804688 5.496094 C 15.804688 4.945312 15.136719 4.398438 14.261719 4.398438 C 13.390625 4.398438 12.71875 4.722656 12.71875 5.496094 L 12.71875 29.632812 C 11.964844 29.632812 11.296875 29.511719 10.527344 29.511719 C 6.582031 29.511719 3.292969 33.148438 3.292969 37.3125 C 3.292969 41.480469 6.136719 45.542969 8.007812 47.511719 C 9.875 49.382812 19.421875 57.164062 20.296875 57.609375 C 21.070312 58.039062 22.167969 57.714844 22.167969 56.515625 Z M 11.074219 44.667969 C 9.222656 41.925781 9.222656 39.9375 9.222656 38.632812 C 9.222656 37.191406 10.320312 33.902344 12.71875 33.902344 L 12.71875 46.640625 C 12.070312 45.96875 11.417969 45.320312 11.074219 44.667969 Z M 19.097656 37.414062 L 19.097656 51.25 C 18.550781 50.90625 17.109375 50.152344 15.804688 49.054688 L 15.804688 34.792969 C 17.109375 35.339844 18.207031 36.320312 19.097656 37.414062 Z M 19.097656 37.414062 "/>
</svg>
