<?xml version="1.0" encoding="UTF-8"?>
<svg xmlns="http://www.w3.org/2000/svg" width="27.82395" height="78.056748" viewBox="0 0 27.82395 78.056748">

<path fill-rule="nonzero" fill="currentColor" d="M 21.992188 26.5625 C 21.769531 26.5625 21.648438 26.683594 21.546875 26.683594 C 21.546875 26.683594 15.417969 28.652344 13.105469 28.652344 C 12.558594 28.652344 12.234375 28.53125 12.234375 28.207031 L 12.234375 14.835938 L 18.359375 18.347656 L 10.8125 5.320312 L 3.367188 18.347656 L 9.492188 14.835938 L 9.492188 58.660156 C 9.597656 59.207031 9.820312 59.550781 10.265625 59.550781 C 10.265625 59.550781 10.367188 59.550781 10.367188 59.429688 L 10.589844 59.429688 C 10.589844 59.429688 10.8125 59.429688 10.914062 59.328125 C 12.128906 58.777344 17.609375 56.691406 20.226562 56.691406 C 21.101562 56.691406 21.648438 56.914062 21.648438 57.683594 L 21.648438 70.710938 C 21.648438 71.378906 22.09375 71.804688 22.742188 71.804688 L 23.292969 71.804688 C 23.738281 71.804688 24.285156 71.378906 24.285156 70.710938 L 24.285156 26.683594 C 24.285156 26.238281 23.957031 26.015625 23.632812 26.015625 C 23.515625 26.015625 23.292969 26.015625 23.292969 26.132812 Z M 21.648438 44.964844 C 21.648438 46.503906 15.519531 48.59375 13.328125 48.59375 C 12.78125 48.59375 12.234375 48.371094 12.234375 48.046875 L 12.234375 38.9375 C 12.234375 37.742188 18.804688 35.445312 20.894531 35.445312 C 21.441406 35.445312 21.648438 35.550781 21.648438 35.875 Z M 21.648438 44.964844 "/>
</svg>
