<?xml version="1.0" encoding="UTF-8"?>
<svg xmlns="http://www.w3.org/2000/svg" width="33.038775" height="85.01031" viewBox="0 0 33.038775 85.01031">

<path fill-rule="nonzero" fill="currentColor" d="M 17.996094 28.722656 L 11.96875 18.050781 L 11.96875 15.675781 L 17.996094 19.246094 L 10.671875 6.417969 L 3.230469 19.246094 L 9.378906 15.675781 L 9.378906 18.050781 L 3.230469 28.605469 L 9.378906 25.273438 L 9.378906 77.210938 C 9.378906 77.429688 9.597656 77.628906 9.816406 77.628906 C 11.210938 77.628906 15.304688 74.195312 16.160156 73.4375 C 18.097656 71.605469 20.589844 70.207031 22.527344 68.371094 C 25.757812 65.578125 28.871094 61.6875 28.871094 57.160156 C 28.871094 52.648438 25.101562 48.976562 20.792969 48.976562 C 19.933594 48.976562 19.074219 49.078125 18.214844 49.414062 C 17.355469 49.617188 14.765625 51.570312 13.148438 51.570312 C 12.507812 51.570312 11.96875 51.132812 11.96875 50.054688 L 11.96875 25.273438 Z M 11.96875 60.390625 C 11.96875 59.3125 13.046875 57.597656 13.25 57.160156 C 14.007812 55.660156 17.457031 53.507812 19.394531 53.507812 C 20.253906 53.507812 21.011719 53.824219 21.550781 54.363281 C 22.40625 55.339844 22.945312 56.839844 22.945312 58.457031 C 22.945312 63.960938 18.097656 67.730469 13.90625 70.425781 C 13.46875 70.628906 13.046875 70.746094 12.710938 70.746094 C 11.96875 70.746094 11.96875 69.449219 11.96875 69.011719 Z M 11.96875 60.390625 "/>
</svg>
