<?xml version="1.0" encoding="UTF-8"?>
<svg xmlns="http://www.w3.org/2000/svg" width="45.01035" height="21.72555" viewBox="0 0 45.01035 21.72555">

<path fill-rule="nonzero" fill="currentColor" d="M 40.789062 5.746094 L 36.242188 5.746094 C 36.242188 10.289062 35.039062 12.253906 31.785156 12.253906 C 30.597656 12.253906 29.191406 11.8125 27.445312 10.726562 L 17.359375 4.761719 C 15.832031 3.898438 14.207031 3.355469 12.578125 3.355469 C 6.949219 3.355469 3.695312 7.796875 3.253906 15.933594 L 7.816406 15.933594 C 8.238281 11.167969 9.984375 9.203125 12.476562 9.203125 C 13.339844 9.203125 15.289062 9.863281 16.171875 10.40625 L 24.734375 15.832031 C 26.902344 17.238281 29.515625 18.101562 31.683594 18.101562 C 37.328125 18.101562 40.789062 13.761719 40.789062 5.746094 Z M 40.789062 5.746094 "/>
</svg>
