<?xml version="1.0" encoding="UTF-8"?>
<svg xmlns="http://www.w3.org/2000/svg" width="33.038775" height="81.292365" viewBox="0 0 33.038775 81.292365">

<path fill-rule="nonzero" fill="currentColor" d="M 11.96875 7.769531 C 11.96875 6.792969 11.632812 6.253906 10.773438 6.253906 C 9.597656 6.253906 9.378906 6.691406 9.378906 7.871094 L 9.378906 64.875 L 3.230469 61.421875 L 10.671875 74.351562 L 17.996094 61.421875 L 11.96875 64.875 L 11.96875 58.726562 C 13.789062 57.53125 16.0625 55.714844 16.378906 55.378906 C 18.433594 53.660156 20.691406 52.265625 22.527344 50.429688 C 25.757812 47.632812 28.871094 43.746094 28.871094 39.214844 C 28.871094 34.703125 25.101562 31.035156 20.792969 31.035156 C 19.933594 31.035156 19.074219 31.136719 18.214844 31.472656 C 17.355469 31.675781 14.765625 33.628906 13.148438 33.628906 C 12.507812 33.628906 11.96875 33.191406 11.96875 32.113281 Z M 11.96875 42.449219 C 11.96875 41.371094 13.046875 39.652344 13.25 39.214844 C 14.007812 37.71875 17.457031 35.5625 19.394531 35.5625 C 20.253906 35.5625 21.011719 35.882812 21.550781 36.421875 C 22.40625 37.398438 22.945312 38.898438 22.945312 40.511719 C 22.945312 46.019531 18.097656 49.789062 13.90625 52.484375 C 13.46875 52.683594 13.046875 52.800781 12.710938 52.800781 C 11.96875 52.800781 11.96875 51.507812 11.96875 51.070312 Z M 11.96875 42.449219 "/>
</svg>
