<?xml version="1.0" encoding="UTF-8"?>
<svg xmlns="http://www.w3.org/2000/svg" width="28.603575" height="68.952807" viewBox="0 0 28.603575 68.952807">

<path fill-rule="nonzero" fill="currentColor" d="M 19.890625 19.03125 C 18.917969 18.484375 15.859375 16.742188 15.859375 16.074219 C 15.859375 14.878906 18.695312 13.5625 19.890625 13.117188 C 20.230469 13.117188 20.660156 13.238281 20.984375 13.238281 C 24.265625 13.238281 24.929688 12.367188 24.929688 9.1875 C 24.929688 5.582031 24.605469 5.136719 21.105469 5.136719 C 17.15625 5.136719 17.054688 5.257812 17.054688 9.085938 C 16.609375 10.058594 15.191406 13.238281 14.097656 13.238281 C 12.902344 13.238281 11.484375 10.382812 11.140625 9.085938 C 11.140625 7.648438 10.9375 6.011719 10.492188 5.683594 C 10.167969 5.257812 8.75 5.136719 7.3125 5.136719 C 5.792969 5.136719 4.253906 5.257812 3.707031 5.683594 C 3.484375 5.90625 3.28125 7.324219 3.28125 8.964844 C 3.28125 10.503906 3.484375 12.144531 3.707031 12.367188 C 4.375 12.914062 5.894531 13.238281 7.433594 13.238281 C 7.757812 13.238281 7.980469 13.117188 8.304688 13.117188 C 9.296875 13.664062 12.355469 15.425781 12.355469 16.074219 C 12.355469 17.167969 9.621094 18.585938 8.40625 19.03125 L 7.535156 19.03125 C 5.894531 19.03125 4.253906 19.132812 3.707031 19.578125 C 3.484375 19.902344 3.28125 21.320312 3.28125 22.960938 C 3.28125 24.5 3.484375 26.140625 3.707031 26.242188 C 4.375 26.789062 5.792969 27.128906 7.210938 27.128906 C 8.527344 27.128906 9.945312 26.910156 10.492188 26.242188 C 11.039062 25.816406 11.140625 24.398438 11.140625 22.960938 C 11.140625 22.859375 11.261719 22.636719 11.363281 22.636719 C 11.910156 21.320312 12.902344 18.929688 14.097656 18.929688 C 15.191406 18.929688 16.730469 21.765625 17.054688 22.960938 C 17.054688 24.5 17.15625 26.039062 17.5 26.242188 C 18.046875 26.789062 19.464844 27.128906 20.984375 27.128906 C 22.417969 27.128906 23.71875 26.910156 24.265625 26.242188 C 24.710938 25.816406 24.929688 24.5 24.929688 23.082031 C 24.929688 21.664062 24.605469 20.023438 24.265625 19.578125 C 23.839844 19.132812 22.300781 19.03125 20.777344 19.03125 Z M 6.664062 41.007812 L 12.78125 51.839844 L 12.78125 54.351562 L 6.664062 50.746094 L 14.097656 63.769531 L 21.53125 50.746094 L 15.414062 54.351562 L 15.414062 51.839844 L 21.53125 41.007812 L 15.414062 44.628906 L 15.414062 42.21875 L 21.53125 31.386719 L 15.414062 34.890625 L 15.414062 24.945312 L 12.78125 24.945312 L 12.78125 34.992188 L 6.664062 31.386719 L 12.78125 42.21875 L 12.78125 44.628906 Z M 6.664062 41.007812 "/>
</svg>
