<?xml version="1.0" encoding="UTF-8"?>
<svg xmlns="http://www.w3.org/2000/svg" width="30.2841" height="70.982604" viewBox="0 0 30.2841 70.982604">

<path fill-rule="nonzero" fill="currentColor" d="M 24.050781 20.757812 C 23.832031 20.757812 23.730469 20.757812 23.730469 20.757812 C 23.730469 20.757812 17.550781 22.804688 15.28125 22.804688 C 14.742188 22.804688 14.421875 22.703125 14.421875 22.382812 L 14.421875 8.183594 L 22.324219 8.183594 C 22.644531 8.183594 22.867188 7.863281 22.867188 7.761719 L 22.867188 6.015625 C 22.867188 5.695312 22.644531 5.59375 22.324219 5.59375 L 3.792969 5.59375 C 3.46875 5.59375 3.25 5.695312 3.25 6.015625 L 3.25 7.761719 C 3.25 7.863281 3.46875 8.183594 3.792969 8.183594 L 11.8125 8.183594 L 11.8125 52.492188 C 11.8125 53.035156 12.035156 53.253906 12.574219 53.253906 L 12.796875 53.253906 C 12.898438 53.253906 13 53.253906 13.117188 53.136719 C 14.300781 52.59375 19.835938 50.546875 22.324219 50.546875 C 23.1875 50.546875 23.730469 50.75 23.730469 51.511719 L 23.730469 64.40625 C 23.730469 64.949219 24.167969 65.371094 24.8125 65.371094 L 25.351562 65.371094 C 25.894531 65.371094 26.335938 64.949219 26.335938 64.40625 L 26.335938 20.859375 C 26.335938 20.417969 25.996094 20.214844 25.675781 20.214844 C 25.574219 20.214844 25.453125 20.214844 25.351562 20.316406 Z M 23.730469 38.953125 C 23.730469 40.457031 17.667969 42.421875 15.503906 42.421875 C 14.960938 42.421875 14.421875 42.304688 14.421875 41.980469 L 14.421875 32.996094 C 14.421875 31.792969 20.917969 29.523438 22.96875 29.523438 C 23.507812 29.523438 23.730469 29.625 23.730469 29.964844 Z M 23.730469 38.953125 "/>
</svg>
