<?xml version="1.0" encoding="UTF-8"?>
<svg xmlns="http://www.w3.org/2000/svg" width="50.302791" height="96.324921" viewBox="0 0 50.302791 96.324921">

<path fill-rule="nonzero" fill="currentColor" d="M 29.019531 36.183594 C 29.019531 35.191406 28.695312 34.644531 27.804688 34.644531 C 26.507812 34.644531 26.386719 35.089844 26.386719 36.285156 L 26.386719 61.664062 C 24.96875 60.347656 23.226562 59.800781 21.246094 59.800781 C 20.375 59.800781 19.5 59.917969 18.628906 60.242188 C 17.757812 60.464844 15.128906 62.429688 13.488281 62.429688 C 12.835938 62.429688 12.289062 61.988281 12.289062 60.789062 L 12.289062 35.738281 L 18.40625 39.140625 L 12.289062 28.425781 L 12.289062 25.898438 L 18.40625 29.519531 L 12.289062 18.789062 L 12.289062 16.277344 L 18.40625 19.882812 L 10.976562 6.878906 L 3.421875 19.882812 L 9.660156 16.277344 L 9.660156 18.789062 L 3.421875 29.519531 L 9.660156 25.898438 L 9.660156 28.425781 L 3.421875 39.140625 L 9.660156 35.636719 L 9.660156 88.355469 C 9.660156 88.679688 9.882812 88.78125 10.101562 88.78125 C 11.523438 88.78125 15.675781 85.398438 16.546875 84.628906 C 18.511719 82.664062 21.140625 81.347656 23.105469 79.605469 C 24.320312 78.390625 25.414062 77.296875 26.386719 76 L 26.386719 88.355469 C 26.386719 88.679688 26.507812 88.78125 26.832031 88.78125 C 28.25 88.78125 32.402344 85.398438 33.273438 84.628906 C 35.257812 82.664062 37.769531 81.347656 39.734375 79.484375 C 43.015625 76.546875 46.195312 72.597656 46.195312 68.121094 C 46.195312 63.421875 42.367188 59.800781 37.992188 59.800781 C 37.101562 59.800781 36.128906 59.917969 35.257812 60.242188 C 34.367188 60.464844 31.753906 62.429688 30.214844 62.429688 C 29.566406 62.429688 29.019531 61.988281 29.019531 60.789062 Z M 12.289062 71.402344 C 12.289062 68.445312 16.769531 64.292969 19.828125 64.292969 C 20.699219 64.292969 21.46875 64.722656 22.011719 65.269531 C 22.886719 66.257812 23.433594 67.796875 23.433594 69.4375 C 23.433594 75.007812 18.511719 78.835938 14.253906 81.570312 C 13.8125 81.792969 13.382812 81.792969 13.042969 81.792969 C 12.289062 81.792969 12.289062 80.578125 12.289062 80.152344 Z M 29.019531 70.855469 C 29.121094 70.632812 29.121094 70.410156 29.121094 70.308594 C 29.566406 69.316406 30.113281 68.550781 30.335938 68.222656 C 30.335938 66.910156 34.914062 64.292969 36.554688 64.292969 C 37.445312 64.292969 38.195312 64.722656 38.742188 65.269531 C 39.632812 66.257812 40.058594 67.796875 40.058594 69.4375 C 40.058594 75.109375 35.257812 78.835938 30.882812 81.570312 C 30.539062 81.792969 29.992188 81.792969 29.789062 81.792969 C 29.019531 81.792969 29.019531 80.578125 29.019531 80.152344 Z M 29.019531 70.855469 "/>
</svg>
