<?xml version="1.0" encoding="UTF-8"?>
<svg xmlns="http://www.w3.org/2000/svg" width="28.603575" height="46.5696" viewBox="0 0 28.603575 46.5696">

<path fill-rule="nonzero" fill="currentColor" d="M 19.890625 17.382812 C 18.917969 16.835938 15.859375 15.09375 15.859375 14.441406 C 15.859375 13.230469 18.695312 11.914062 19.890625 11.488281 C 20.230469 11.488281 20.660156 11.589844 20.984375 11.589844 C 24.265625 11.589844 24.929688 10.71875 24.929688 7.539062 C 24.929688 4.15625 24.605469 3.386719 21.105469 3.386719 C 19.464844 3.386719 17.925781 3.609375 17.5 4.054688 C 17.15625 4.257812 17.054688 5.898438 17.054688 7.4375 C 16.609375 8.429688 15.191406 11.589844 14.097656 11.589844 C 12.902344 11.589844 11.484375 8.632812 11.140625 7.4375 C 11.140625 6.019531 10.9375 4.378906 10.492188 4.054688 C 10.167969 3.609375 8.75 3.386719 7.3125 3.386719 C 5.792969 3.386719 4.253906 3.609375 3.707031 4.054688 C 3.484375 4.257812 3.28125 5.695312 3.28125 7.335938 C 3.28125 8.855469 3.484375 10.394531 3.707031 10.71875 C 4.375 11.265625 5.894531 11.589844 7.433594 11.589844 C 7.757812 11.589844 7.980469 11.488281 8.304688 11.488281 C 9.296875 12.035156 12.355469 13.777344 12.355469 14.324219 C 12.355469 15.535156 9.621094 16.953125 8.40625 17.382812 L 7.535156 17.382812 C 5.894531 17.382812 4.253906 17.5 3.707031 17.929688 C 3.484375 18.269531 3.28125 19.6875 3.28125 21.328125 C 3.28125 22.851562 3.484375 24.386719 3.707031 24.609375 C 4.375 25.15625 5.792969 25.480469 7.210938 25.480469 C 8.527344 25.480469 9.945312 25.261719 10.492188 24.609375 C 11.039062 24.167969 11.140625 22.644531 11.140625 21.328125 C 11.140625 21.210938 11.261719 21.003906 11.363281 20.886719 C 11.910156 19.6875 12.902344 17.28125 14.097656 17.28125 C 15.191406 17.28125 16.730469 20.015625 17.054688 21.328125 C 17.054688 22.851562 17.15625 24.386719 17.5 24.609375 C 18.046875 25.15625 19.464844 25.480469 20.984375 25.480469 C 22.417969 25.480469 23.71875 25.261719 24.265625 24.609375 C 24.710938 24.167969 24.929688 22.851562 24.929688 21.433594 C 24.929688 20.015625 24.605469 18.375 24.265625 17.929688 C 23.839844 17.5 22.300781 17.382812 20.777344 17.382812 Z M 6.664062 29.632812 L 14.097656 42.757812 L 21.53125 29.632812 L 15.414062 33.136719 L 15.414062 23.292969 L 12.78125 23.292969 L 12.78125 33.136719 Z M 6.664062 29.632812 "/>
</svg>
