<?xml version="1.0" encoding="UTF-8"?>
<svg xmlns="http://www.w3.org/2000/svg" width="26.71515" height="63.787878" viewBox="0 0 26.71515 63.787878">

<path fill-rule="nonzero" fill="currentColor" d="M 23.140625 6.230469 C 23.140625 5.03125 22.9375 4.585938 21.71875 4.585938 C 20.84375 4.585938 20.519531 5.132812 20.519531 6.128906 L 20.519531 30.914062 C 20.519531 32.011719 19.96875 32.457031 19.300781 32.457031 C 17.65625 32.457031 15.035156 30.46875 14.160156 30.261719 C 13.269531 29.921875 12.289062 29.816406 11.417969 29.816406 C 7.027344 29.816406 3.292969 33.554688 3.292969 38.148438 C 3.292969 42.761719 6.480469 46.71875 9.652344 49.566406 C 11.742188 51.535156 14.261719 52.855469 16.234375 54.726562 C 17.109375 55.496094 21.289062 58.992188 22.714844 58.992188 C 22.9375 58.992188 23.140625 58.789062 23.140625 58.566406 Z M 20.519531 50.21875 C 20.519531 50.664062 20.519531 51.984375 19.746094 51.984375 C 17.65625 51.984375 11.742188 46.496094 10.867188 44.730469 C 9.769531 42.878906 9.324219 41.011719 9.324219 39.46875 C 9.324219 37.824219 9.875 36.296875 10.75 35.304688 C 11.296875 34.753906 12.066406 34.429688 12.941406 34.429688 C 15.90625 34.429688 20.519531 38.148438 20.519531 41.441406 Z M 20.519531 50.21875 "/>
</svg>
