<?xml version="1.0" encoding="UTF-8"?>
<svg xmlns="http://www.w3.org/2000/svg" width="50.162112" height="73.695699" viewBox="0 0 50.162112 73.695699">

<path fill-rule="nonzero" fill="currentColor" d="M 28.808594 15.492188 C 28.808594 14.503906 28.484375 13.957031 27.601562 13.957031 C 26.304688 13.957031 26.1875 14.402344 26.1875 15.59375 L 26.1875 40.898438 C 24.769531 39.585938 23.03125 39.042969 21.054688 39.042969 C 20.1875 39.042969 19.316406 39.160156 18.449219 39.484375 C 17.582031 39.707031 14.957031 41.664062 13.320312 41.664062 C 12.671875 41.664062 12.128906 41.222656 12.128906 40.03125 L 12.128906 14.84375 L 18.226562 18.4375 L 10.816406 5.453125 L 3.402344 18.4375 L 9.503906 14.84375 L 9.503906 67.515625 C 9.503906 67.839844 9.722656 67.941406 9.945312 67.941406 C 11.359375 67.941406 15.5 64.566406 16.371094 63.800781 C 18.328125 61.839844 20.953125 60.527344 22.914062 58.792969 C 24.125 57.582031 25.214844 56.492188 26.1875 55.195312 L 26.1875 67.515625 C 26.1875 67.839844 26.304688 67.941406 26.628906 67.941406 C 28.042969 67.941406 32.183594 64.566406 33.054688 63.800781 C 35.03125 61.839844 37.535156 60.527344 39.492188 58.671875 C 42.765625 55.742188 45.933594 51.804688 45.933594 47.339844 C 45.933594 42.652344 42.117188 39.042969 37.757812 39.042969 C 36.871094 39.042969 35.898438 39.160156 35.03125 39.484375 C 34.144531 39.707031 31.535156 41.664062 30.003906 41.664062 C 29.355469 41.664062 28.808594 41.222656 28.808594 40.03125 Z M 28.808594 50.066406 C 28.910156 49.84375 28.910156 49.625 28.910156 49.519531 C 29.355469 48.53125 29.898438 47.765625 30.121094 47.441406 C 30.121094 46.128906 34.6875 43.523438 36.324219 43.523438 C 37.210938 43.523438 37.960938 43.949219 38.503906 44.496094 C 39.390625 45.484375 39.816406 47.015625 39.816406 48.652344 C 39.816406 54.308594 35.03125 58.023438 30.667969 60.75 C 30.328125 60.972656 29.78125 60.972656 29.578125 60.972656 C 28.808594 60.972656 28.808594 59.761719 28.808594 59.335938 Z M 12.128906 50.613281 C 12.128906 47.664062 16.59375 43.523438 19.640625 43.523438 C 20.511719 43.523438 21.277344 43.949219 21.824219 44.496094 C 22.691406 45.484375 23.238281 47.015625 23.238281 48.652344 C 23.238281 54.207031 18.328125 58.023438 14.085938 60.75 C 13.644531 60.972656 13.21875 60.972656 12.878906 60.972656 C 12.128906 60.972656 12.128906 59.761719 12.128906 59.335938 Z M 12.128906 50.613281 "/>
</svg>
