<?xml version="1.0" encoding="UTF-8"?>
<svg xmlns="http://www.w3.org/2000/svg" width="21.51765" height="69.575814" viewBox="0 0 21.51765 69.575814">

<path fill-rule="nonzero" fill="currentColor" d="M 15.503906 19.125 C 15.285156 19.125 15.183594 19.226562 15.183594 19.226562 C 15.183594 19.226562 9.539062 21.195312 7.371094 21.195312 C 6.828125 21.195312 6.507812 21.195312 6.507812 20.753906 L 6.507812 6.332031 C 6.507812 5.671875 5.964844 5.25 5.421875 5.25 L 4.339844 5.25 C 3.695312 5.25 3.253906 5.671875 3.253906 6.332031 L 3.253906 51.015625 C 3.253906 51.558594 3.472656 51.761719 4.015625 51.761719 L 4.234375 51.660156 C 4.339844 51.660156 4.441406 51.660156 4.558594 51.558594 C 5.746094 51.117188 10.625 48.949219 13.117188 48.949219 C 13.996094 48.949219 14.640625 49.273438 14.640625 49.933594 L 14.640625 62.828125 C 14.640625 63.488281 15.082031 63.914062 15.625 63.914062 L 16.808594 63.914062 C 17.351562 63.914062 17.792969 63.488281 17.792969 62.828125 L 17.792969 19.347656 C 17.792969 18.90625 17.453125 18.585938 17.132812 18.585938 C 17.03125 18.585938 16.910156 18.585938 16.808594 18.6875 Z M 6.507812 31.496094 C 6.507812 30.292969 11.710938 28.023438 13.878906 28.023438 C 14.320312 28.023438 14.640625 28.125 14.640625 28.445312 L 14.640625 37.34375 C 14.640625 38.96875 9.660156 40.917969 7.488281 40.917969 C 6.949219 40.917969 6.507812 40.714844 6.507812 40.375 Z M 6.507812 31.496094 "/>
</svg>
