<?xml version="1.0" encoding="UTF-8"?>
<svg xmlns="http://www.w3.org/2000/svg" width="28.72485" height="71.766387" viewBox="0 0 28.72485 71.766387">

<path fill-rule="nonzero" fill="currentColor" d="M 24.164062 25.546875 C 24.710938 25.222656 25.15625 24.570312 25.15625 24.019531 L 25.15625 17.757812 C 25.15625 17.3125 24.933594 17.105469 24.609375 17.105469 C 24.386719 17.105469 24.265625 17.105469 24.164062 17.207031 C 24.164062 17.207031 22.410156 17.859375 21.964844 17.980469 C 21.3125 17.980469 20.644531 17.535156 20.644531 16.761719 L 20.644531 6.121094 C 20.644531 5.574219 20.214844 5.128906 19.441406 5.128906 C 18.566406 5.128906 18.019531 5.574219 18.019531 6.121094 L 18.019531 17.535156 C 18.019531 18.410156 17.675781 19.507812 16.921875 20.058594 C 15.820312 20.726562 12.851562 21.925781 11.429688 22.253906 C 10.535156 22.253906 10.332031 21.15625 10.332031 20.503906 L 10.332031 9.964844 C 10.332031 9.417969 9.660156 8.972656 9.113281 8.972656 C 8.238281 8.972656 7.6875 9.417969 7.6875 9.964844 L 7.6875 21.824219 C 7.6875 23.027344 7.140625 23.902344 6.589844 24.242188 C 6.144531 24.449219 4.394531 25.121094 4.394531 25.121094 C 3.742188 25.34375 3.292969 25.996094 3.292969 26.542969 L 3.292969 32.808594 C 3.292969 33.355469 3.519531 33.578125 4.066406 33.578125 L 4.289062 33.578125 C 4.394531 33.460938 5.714844 33.03125 6.261719 32.585938 C 7.140625 32.585938 7.6875 33.234375 7.6875 34.128906 L 7.6875 42.792969 C 7.6875 43.789062 7.242188 44.5625 6.691406 44.886719 C 6.144531 44.992188 4.394531 45.761719 4.394531 45.761719 C 3.742188 45.988281 3.292969 46.640625 3.292969 47.1875 L 3.292969 53.453125 C 3.292969 54 3.519531 54.222656 4.066406 54.222656 L 4.289062 54.222656 C 4.394531 54.105469 5.59375 53.675781 6.367188 53.347656 C 6.488281 53.226562 6.589844 53.226562 6.589844 53.226562 C 7.242188 53.226562 7.6875 54.222656 7.6875 54.652344 L 7.6875 65.53125 C 7.6875 65.980469 8.238281 66.40625 8.785156 66.40625 C 9.660156 66.40625 10.332031 65.980469 10.332031 65.53125 L 10.332031 53.226562 C 10.332031 52.128906 10.757812 51.476562 11.207031 51.359375 L 16.578125 49.160156 C 16.578125 49.160156 16.578125 49.160156 16.699219 49.160156 L 16.800781 49.058594 C 17.574219 49.058594 18.019531 50.15625 18.019531 50.601562 L 18.019531 61.585938 C 18.019531 62.136719 18.566406 62.5625 19.21875 62.5625 C 20.214844 62.5625 20.644531 62.136719 20.644531 61.585938 L 20.644531 49.160156 C 20.644531 48.40625 21.089844 47.410156 21.640625 47.085938 C 22.292969 46.863281 24.164062 46.210938 24.164062 46.210938 C 24.710938 45.867188 25.15625 45.214844 25.15625 44.664062 L 25.15625 38.402344 C 25.15625 37.972656 24.933594 37.75 24.609375 37.75 C 24.386719 37.75 24.265625 37.75 24.164062 37.851562 L 21.863281 38.726562 C 21.3125 38.726562 20.644531 38.179688 20.644531 37.082031 L 20.644531 28.964844 C 20.644531 28.292969 21.089844 26.648438 21.863281 26.441406 Z M 18.019531 39.824219 C 17.574219 41.59375 13.402344 43.34375 11.429688 43.34375 C 10.878906 43.34375 10.433594 43.121094 10.332031 42.914062 C 10.109375 42.570312 10.109375 40.597656 10.109375 38.523438 C 10.109375 35.777344 10.109375 32.6875 10.332031 32.035156 C 10.535156 30.492188 14.5 28.636719 16.699219 28.636719 C 17.347656 28.636719 17.898438 28.84375 18.019531 29.1875 C 18.222656 29.617188 18.449219 31.8125 18.449219 34.230469 C 18.449219 36.53125 18.222656 39.070312 18.019531 39.824219 Z M 18.019531 39.824219 "/>
</svg>
