<?xml version="1.0" encoding="UTF-8"?>
<svg xmlns="http://www.w3.org/2000/svg" width="26.71515" height="63.144774" viewBox="0 0 26.71515 63.144774">

<path fill-rule="nonzero" fill="currentColor" d="M 4.414062 57.558594 C 4.636719 57.902344 4.859375 58.003906 5.183594 58.003906 C 5.40625 58.003906 5.730469 57.78125 5.730469 57.78125 C 8.34375 56.363281 10.429688 53.953125 12.617188 52.535156 C 20.378906 47.066406 23.113281 41.695312 23.113281 37.664062 C 23.113281 32.738281 19.285156 29.5625 15.25 29.339844 C 14.585938 29.339844 14.039062 29.339844 13.386719 29.5625 C 12.398438 29.78125 11.421875 30.210938 10.429688 30.757812 C 9.882812 31.203125 8.890625 31.972656 8.464844 31.972656 C 8.34375 31.972656 8.242188 31.972656 8.019531 31.972656 C 7.472656 31.644531 7.046875 31.097656 7.046875 30.433594 C 7.148438 28.46875 7.695312 7.457031 7.695312 5.714844 C 7.695312 4.84375 6.925781 4.296875 6.054688 4.296875 C 4.859375 4.296875 3.421875 5.167969 3.320312 6.691406 C 3.320312 6.691406 3.644531 56.6875 4.414062 57.558594 Z M 7.472656 49.800781 C 7.472656 49.800781 7.148438 44.550781 7.148438 41.046875 C 7.148438 39.628906 7.25 38.535156 7.371094 38.210938 C 7.917969 36.570312 11.523438 33.9375 13.492188 33.9375 C 16.003906 33.9375 17.097656 36.894531 17.097656 38.960938 C 17.097656 40.601562 16.671875 42.464844 15.574219 44.226562 C 14.808594 45.867188 10.207031 51.117188 8.34375 51.117188 C 7.59375 51.117188 7.472656 50.242188 7.472656 49.800781 Z M 7.472656 49.800781 "/>
</svg>
