<?xml version="1.0" encoding="UTF-8"?>
<svg xmlns="http://www.w3.org/2000/svg" width="32.9175" height="103.921587" viewBox="0 0 32.9175 103.921587">

<path fill-rule="nonzero" fill="currentColor" d="M 12.167969 8.796875 C 12.167969 7.792969 11.820312 7.238281 10.9375 7.238281 C 9.730469 7.238281 9.503906 7.6875 9.503906 8.898438 L 9.503906 67.414062 L 3.316406 63.871094 L 9.503906 74.8125 L 9.503906 77.246094 L 3.316406 73.707031 L 9.503906 84.558594 L 9.503906 87.097656 L 3.316406 83.453125 L 10.835938 96.601562 L 18.457031 83.453125 L 12.167969 87.097656 L 12.167969 84.558594 L 18.457031 73.707031 L 12.167969 77.246094 L 12.167969 74.8125 L 18.457031 63.871094 L 12.167969 67.414062 L 12.167969 61.105469 C 14.03125 59.878906 16.367188 58.011719 16.695312 57.667969 C 18.800781 55.90625 21.117188 54.472656 23 52.585938 C 26.320312 49.71875 29.515625 45.726562 29.515625 41.078125 C 29.515625 36.445312 25.644531 32.679688 21.222656 32.679688 C 20.339844 32.679688 19.460938 32.78125 18.578125 33.128906 C 17.695312 33.335938 15.035156 35.339844 13.375 35.339844 C 12.71875 35.339844 12.167969 34.890625 12.167969 33.785156 Z M 12.167969 44.394531 C 12.167969 43.289062 13.273438 41.527344 13.480469 41.078125 C 14.257812 39.539062 17.800781 37.328125 19.789062 37.328125 C 20.667969 37.328125 21.445312 37.65625 22 38.207031 C 22.882812 39.210938 23.433594 40.75 23.433594 42.40625 C 23.433594 48.058594 18.457031 51.929688 14.152344 54.695312 C 13.703125 54.902344 13.273438 55.023438 12.925781 55.023438 C 12.167969 55.023438 12.167969 53.691406 12.167969 53.242188 Z M 12.167969 44.394531 "/>
</svg>
