<?xml version="1.0" encoding="UTF-8"?>
<svg xmlns="http://www.w3.org/2000/svg" width="24.168375" height="51.207156" viewBox="0 0 24.168375 51.207156">

<path fill-rule="nonzero" fill="currentColor" d="M 20.148438 4.417969 C 20.148438 4.101562 20.148438 3.882812 20.046875 3.882812 C 19.832031 3.882812 19.613281 4.101562 19.195312 4.417969 L 4.289062 15.253906 C 3.433594 15.789062 3.214844 16.109375 3.214844 16.644531 L 3.214844 19.644531 C 3.214844 19.960938 3.316406 20.078125 3.433594 20.078125 C 3.652344 20.078125 3.851562 19.960938 4.289062 19.644531 L 19.195312 8.824219 C 19.832031 8.289062 20.148438 7.96875 20.148438 7.535156 Z M 20.148438 17.398438 C 20.148438 17.082031 20.148438 16.863281 20.046875 16.863281 C 19.832031 16.863281 19.613281 17.082031 19.195312 17.398438 L 4.289062 28.335938 C 3.433594 28.753906 3.214844 29.074219 3.214844 29.726562 L 3.214844 32.722656 C 3.214844 32.941406 3.316406 33.160156 3.433594 33.160156 C 3.652344 33.160156 3.851562 32.941406 4.289062 32.722656 L 19.195312 21.785156 C 19.832031 21.25 20.148438 21.152344 20.148438 20.613281 Z M 20.148438 30.898438 C 20.148438 30.578125 20.148438 30.363281 20.046875 30.363281 C 19.832031 30.363281 19.613281 30.578125 19.195312 30.898438 L 4.289062 41.835938 C 3.433594 42.269531 3.214844 42.589844 3.214844 43.125 L 3.214844 46.121094 C 3.214844 46.558594 3.316406 46.558594 3.433594 46.558594 C 3.652344 46.558594 3.851562 46.558594 4.289062 46.121094 L 19.195312 35.304688 C 19.832031 34.765625 20.148438 34.550781 20.148438 34.113281 Z M 20.148438 30.898438 "/>
</svg>
