<?xml version="1.0" encoding="UTF-8"?>
<svg xmlns="http://www.w3.org/2000/svg" width="43.69365" height="92.606976" viewBox="0 0 43.69365 92.606976">

<path fill-rule="nonzero" fill="currentColor" d="M 22.796875 8.019531 C 22.796875 7.019531 22.46875 6.46875 21.574219 6.46875 C 20.265625 6.46875 20.144531 6.917969 20.144531 8.121094 L 20.144531 33.667969 C 18.71875 32.449219 16.964844 31.792969 14.96875 31.792969 C 14.089844 31.792969 13.214844 31.898438 12.335938 32.242188 C 11.457031 32.449219 8.808594 34.445312 7.15625 34.445312 C 6.503906 34.445312 5.953125 33.996094 5.953125 32.894531 L 5.953125 8.019531 C 5.953125 7.019531 5.609375 6.46875 4.730469 6.46875 C 3.527344 6.46875 3.304688 6.917969 3.304688 8.121094 L 3.304688 60.644531 C 3.304688 60.871094 3.527344 61.074219 3.75 61.074219 C 5.179688 61.074219 9.359375 57.566406 10.238281 56.792969 C 12.214844 54.917969 14.863281 53.488281 16.84375 51.71875 C 18.066406 50.511719 19.164062 49.410156 20.144531 48.085938 L 20.144531 66.375 L 13.988281 62.847656 L 20.144531 73.738281 L 20.144531 76.0625 L 13.988281 72.535156 L 21.472656 85.746094 L 29.074219 72.535156 L 22.796875 76.0625 L 22.796875 73.738281 L 29.074219 62.847656 L 22.796875 66.375 L 22.796875 59.976562 C 24.671875 58.875 26.976562 57.015625 27.304688 56.671875 C 29.402344 54.917969 31.707031 53.488281 33.582031 51.613281 C 36.886719 48.757812 40.085938 44.785156 40.085938 40.15625 C 40.085938 35.542969 36.230469 31.792969 31.828125 31.792969 C 30.933594 31.792969 29.953125 31.898438 29.074219 32.242188 C 28.179688 32.449219 25.546875 34.445312 24 34.445312 C 23.347656 34.445312 22.796875 33.996094 22.796875 32.894531 Z M 5.953125 43.457031 C 5.953125 42.359375 7.054688 40.601562 7.261719 40.15625 C 8.035156 38.625 11.5625 36.421875 13.539062 36.421875 C 14.417969 36.421875 15.191406 36.75 15.742188 37.300781 C 16.621094 38.296875 17.171875 39.828125 17.171875 41.480469 C 17.171875 47.105469 12.214844 50.960938 7.929688 53.710938 C 7.484375 53.917969 7.054688 54.039062 6.710938 54.039062 C 5.953125 54.039062 5.953125 52.714844 5.953125 52.265625 Z M 22.796875 43.027344 C 22.898438 42.703125 22.898438 42.582031 22.898438 42.359375 C 23.347656 41.378906 23.898438 40.601562 24.121094 40.277344 C 24.121094 38.726562 28.730469 36.421875 30.382812 36.421875 C 31.277344 36.421875 32.035156 36.75 32.585938 37.300781 C 33.480469 38.296875 33.910156 39.828125 33.910156 41.480469 C 33.910156 47.210938 29.074219 50.960938 24.671875 53.710938 C 24.328125 53.917969 23.777344 54.039062 23.570312 54.039062 C 22.796875 54.039062 22.796875 52.714844 22.796875 52.265625 Z M 22.796875 43.027344 "/>
</svg>
