<?xml version="1.0" encoding="UTF-8"?>
<svg xmlns="http://www.w3.org/2000/svg" width="27.82395" height="101.369268" viewBox="0 0 27.82395 101.369268">

<path fill-rule="nonzero" fill="currentColor" d="M 24.34375 70.859375 L 18.078125 74.386719 L 18.078125 71.960938 L 24.34375 61.164062 L 18.078125 64.695312 L 18.078125 21.171875 C 18.078125 20.726562 17.734375 20.519531 17.40625 20.519531 C 17.300781 20.519531 17.179688 20.519531 17.078125 20.621094 L 15.753906 21.070312 C 15.527344 21.070312 15.425781 21.070312 15.425781 21.070312 C 15.425781 21.070312 9.140625 23.152344 6.835938 23.152344 C 6.285156 23.152344 5.957031 23.050781 5.957031 22.722656 L 5.957031 7.949219 C 5.957031 7.398438 5.40625 6.953125 4.855469 6.953125 L 4.40625 6.953125 C 3.753906 6.953125 3.304688 7.398438 3.304688 7.949219 L 3.304688 53.351562 C 3.304688 53.902344 3.527344 54.125 4.082031 54.125 L 4.304688 54.125 C 4.40625 54.125 4.511719 54.125 4.632812 54.003906 C 5.835938 53.453125 11.464844 51.371094 13.996094 51.371094 C 14.875 51.371094 15.425781 51.578125 15.425781 52.351562 L 15.425781 64.695312 L 9.261719 61.164062 L 15.425781 71.960938 L 15.425781 74.386719 L 9.261719 70.859375 L 15.425781 81.671875 L 15.425781 84.199219 L 9.261719 80.566406 L 16.75 93.789062 L 24.34375 80.566406 L 18.078125 84.199219 L 18.078125 81.671875 Z M 5.957031 33.515625 C 5.957031 32.292969 12.566406 29.988281 14.652344 29.988281 C 15.203125 29.988281 15.425781 30.089844 15.425781 30.433594 L 15.425781 39.578125 C 15.425781 41.109375 9.261719 43.105469 7.058594 43.105469 C 6.507812 43.105469 5.957031 42.984375 5.957031 42.660156 Z M 5.957031 33.515625 "/>
</svg>
