<?xml version="1.0" encoding="UTF-8"?>
<svg xmlns="http://www.w3.org/2000/svg" width="32.624447" height="94.309836" viewBox="0 0 32.624447 94.309836">

<path fill-rule="nonzero" fill="currentColor" d="M 3.289062 66.175781 C 3.289062 66.175781 7.023438 63.433594 12.605469 59.375 L 12.605469 87 L 15.6875 87 L 15.6875 57.078125 C 20.175781 53.792969 25.878906 49.628906 28.074219 47.863281 C 29.167969 47.109375 28.945312 46.664062 28.945312 46.5625 C 28.945312 45.792969 27.746094 45.125 27.523438 45.023438 L 15.6875 36.800781 L 15.6875 6.65625 C 14.25 6.757812 13.496094 6.550781 12.605469 6.65625 L 12.605469 34.710938 L 3.289062 28.253906 L 3.289062 38.445312 L 12.605469 44.371094 L 12.605469 55.210938 L 3.289062 61.910156 Z M 15.6875 53.019531 L 15.6875 46.21875 L 20.828125 49.40625 Z M 15.6875 53.019531 "/>
</svg>
